<?xml version="1.0" encoding="UTF-8" standalone="no"?>
<svg
   version="1.1"
   width="968.25793"
   height="299.88507"
   id="svg155"
   sodipodi:docname="flatpare_logo.svg"
   inkscape:version="1.4.3 (0d15f75, 2025-12-25)"
   xmlns:inkscape="http://www.inkscape.org/namespaces/inkscape"
   xmlns:sodipodi="http://sodipodi.sourceforge.net/DTD/sodipodi-0.dtd"
   xmlns="http://www.w3.org/2000/svg"
   xmlns:svg="http://www.w3.org/2000/svg">
  <defs
     id="defs155" />
  <sodipodi:namedview
     id="namedview155"
     pagecolor="#ffffff"
     bordercolor="#000000"
     borderopacity="0.25"
     inkscape:showpageshadow="2"
     inkscape:pageopacity="0.0"
     inkscape:pagecheckerboard="0"
     inkscape:deskcolor="#d1d1d1"
     showgrid="false"
     inkscape:zoom="0.63716108"
     inkscape:cx="627"
     inkscape:cy="885.9612"
     inkscape:window-width="1920"
     inkscape:window-height="1008"
     inkscape:window-x="0"
     inkscape:window-y="0"
     inkscape:window-maximized="1"
     inkscape:current-layer="svg155">
    <inkscape:grid
       id="grid155"
       units="px"
       originx="-157"
       originy="-285.11493"
       spacingx="1"
       spacingy="1"
       empcolor="#0099e5"
       empopacity="0.30196078"
       color="#0099e5"
       opacity="0.14901961"
       empspacing="5"
       enabled="true"
       visible="false" />
    <inkscape:page
       x="0"
       y="0"
       width="968.25793"
       height="299.88507"
       id="page2"
       margin="0"
       bleed="0" />
  </sodipodi:namedview>
  <path
     d="m 177,0.8850708 c 2.71167,1.1396559 5.30342,2.4641923 7.90625,3.8320313 0.75361,0.3879977 1.50722,0.7759954 2.28366,1.1757507 2.44111,1.2599182 4.87568,2.5319018 7.31009,3.804718 1.68157,0.8719422 3.36338,1.7434412 5.04541,2.6145022 11.47892,5.958375 22.87115,12.061491 34.18555,18.326904 4.29663,2.359591 8.63217,4.646901 12.97168,6.926514 4.19273,2.214948 4.19273,2.214948 5.29736,3.31958 0.095,2.494924 0.12558,4.96206 0.11352,7.457275 1.5e-4,0.780432 3e-4,1.560864 4.5e-4,2.364945 -7e-4,2.59184 -0.008,5.183609 -0.0163,7.775436 -0.002,1.79219 -0.003,3.584381 -0.004,5.376572 -0.004,4.72648 -0.0137,9.45293 -0.0247,14.179397 -0.0102,4.81923 -0.0148,9.638465 -0.0198,14.457703 -0.0107,9.462901 -0.0278,18.925781 -0.0488,28.388671 2.97,-0.99 5.94,-1.98 9,-3 0,0.66 0,1.32 0,2 -0.592,0.30067 -1.184,0.60135 -1.79395,0.91113 -14.07593,7.17629 -27.80511,14.71751 -41.20605,23.08887 -0.73412,0.45729 -1.46824,0.91459 -2.22461,1.38574 -15.40732,9.64868 -30.08909,20.24604 -44.18945,31.71582 -2.36626,1.92411 -4.75389,3.8132 -7.17188,5.67188 -7.71601,5.93588 -14.91554,12.23169 -21.99804,18.90771 -2.54973,2.37476 -5.18619,4.64784 -7.83008,6.91651 -1.59438,1.40981 -3.09721,2.88203 -4.58594,4.40234 -4.6218,-1.62702 -8.53664,-4.07802 -12.6875,-6.625 -8.04206,-4.83331 -16.31131,-8.79018 -24.96875,-12.38965 -1.680694,-0.70659 -3.351615,-1.43661 -5.015625,-2.18164 -7.39443,-3.24313 -14.887175,-5.49398 -22.708985,-7.43408 -1.98746,-0.49297 -3.97139,-0.99843 -5.95508,-1.50635 -7.64949,-1.94305 -15.31789,-3.68158 -23.05322,-5.2456 C 33,176.88507 33,176.88507 32,175.88507 c -0.095,-2.37301 -0.12559,-4.71679 -0.11353,-7.09009 -1.4e-4,-0.74142 -2.9e-4,-1.48283 -4.4e-4,-2.24672 7e-4,-2.46198 0.008,-4.92388 0.0163,-7.38585 0.002,-1.70251 0.003,-3.40502 0.004,-5.10752 0.004,-4.48975 0.0137,-8.97946 0.0247,-13.4692 0.0102,-4.57793 0.0148,-9.15588 0.0198,-13.73382 0.0107,-8.98895 0.0278,-17.97787 0.0488,-26.966799 1.05263,-0.525701 2.10525,-1.051402 3.18977,-1.593033 9.84941,-4.919648 9.84941,-4.919648 19.67856,-9.879608 2.86097,-1.451341 5.72581,-2.894966 8.59041,-4.339127 1.50658,-0.760961 3.01208,-1.524039 4.5166,-2.289062 2.21766,-1.126989 4.43908,-2.246218 6.66138,-3.364014 1.00156,-0.512395 1.00156,-0.512395 2.02336,-1.035141 8.303354,-4.153173 8.303354,-4.153173 12.68753,-2.747101 0.806082,0.410814 1.612164,0.821627 2.442673,1.244889 0.933322,0.467083 1.866643,0.934167 2.828247,1.415405 1.451465,0.752591 1.451465,0.752591 2.932251,1.520386 0.899242,0.453146 1.798484,0.906291 2.724979,1.373169 3.35334,1.694969 6.69432,3.414322 10.03674,5.130737 7.48687,3.815625 14.97375,7.63125 22.6875,11.5625 0,33.659999 0,67.319999 0,101.999999 2.31,-1.98 4.62,-3.96 7,-6 0.66,0 1.32,0 2,0 -0.33,-32.67 -0.66,-65.34 -1,-98.999999 -15.4544,-8.089263 -15.4544,-8.089263 -31,-16 0,-14.52 0,-29.04 0,-44 13.20507,-7.521874 26.44735,-14.928381 39.86475,-22.064941 1.01787,-0.543179 2.03575,-1.086358 3.08447,-1.645997 1.49346,-0.7942233 1.49346,-0.7942233 3.01709,-1.6044919 4.18957,-2.3264145 8.22839,-4.8876279 12.25561,-7.4838867 3.5528,-1.5353554 5.08003,-1.2929476 8.77845,-0.2006836 z"
     fill="#302f2f"
     id="path3" />
  <path
     d="m 308,100.88507 c 0.66,0.33 1.32,0.66 2,1 -2.51895,2.68927 -5.04051,5.37608 -7.5625,8.0625 -1.05671,1.12825 -1.05671,1.12825 -2.13477,2.2793 -3.85007,4.09846 -7.7386,8.14071 -11.75073,12.08105 -2.2951,2.33229 -4.40995,4.80931 -6.54419,7.28809 -1.95129,2.22462 -3.94934,4.40042 -5.96191,6.56958 -4.78762,5.16191 -9.31784,10.45032 -13.7334,15.93823 -2.51223,3.02146 -5.13671,5.90546 -7.8125,8.78125 -4.23078,4.55241 -8.22276,9.24614 -12.12109,14.08594 -2.73796,3.35388 -5.55108,6.63599 -8.37891,9.91406 -3.55476,4.12448 -7.06793,8.27209 -10.5,12.5 -3.93379,4.84597 -7.98448,9.58099 -12.05859,14.30859 -3.03099,3.52459 -6.01134,7.0819 -8.94141,10.69141 -4.39062,5.40506 -8.91913,10.68324 -13.46094,15.96094 -2.86503,3.33071 -5.70564,6.68144 -8.53906,10.03906 -6.29877,7.45904 -12.65995,14.86416 -19.02051,22.27051 -1.51437,1.76368 -3.02832,3.52771 -4.54199,5.29199 -0.49025,0.5713 -0.98049,1.14259 -1.4856,1.7312 -4.01653,4.68607 -8.00479,9.39572 -11.97558,14.12061 -1.76938,2.09986 -3.53354,4.14291 -5.47632,6.08569 -3.86996,-0.29633 -5.89295,-1.38766 -8.63672,-4.0625 -0.65484,-0.62777 -1.30969,-1.25555 -1.98437,-1.90234 -1.02287,-1.00741 -1.02287,-1.00741 -2.06641,-2.03516 -1.43031,-1.3757 -2.8613,-2.7507 -4.29297,-4.125 -0.69013,-0.66773 -1.38026,-1.33547 -2.09131,-2.02344 -3.87901,-3.72479 -7.90146,-7.28773 -11.92822,-10.85156 -0.62391,-0.55301 -1.24781,-1.10602 -1.89062,-1.67578 -4.78661,-4.21342 -9.63537,-8.35468 -14.4834,-12.49707 -3.13906,-2.6847 -6.26638,-5.38124 -9.37207,-8.10449 -6.51053,-5.70328 -13.08149,-11.26483 -19.92505,-16.56543 -3.7292,-2.88934 -7.39725,-5.84036 -11.0376,-8.84082 C 40.79694,219.3858 30.95802,212.09619 21,204.88507 20.15921,204.2747 19.31842,203.66433 18.45215,203.03546 9.31235,196.33707 9.31235,196.33707 0,189.88507 c 0.495,-0.99 0.495,-0.99 1,-2 45.13513,3.8804 94.24806,19.56621 129.01099,49.74585 1.85986,1.4534 1.85986,1.4534 3.8347,1.09087 2.88503,-1.12053 4.43826,-2.76851 6.61232,-4.97002 0.87481,-0.87827 1.74962,-1.75653 2.65094,-2.66141 0.94813,-0.96679 1.89619,-1.93366 2.84418,-2.9006 0.98329,-0.99144 1.96733,-1.98214 2.95208,-2.97214 2.59432,-2.61144 5.17997,-5.23131 7.76343,-7.85349 4.11799,-4.17711 8.24846,-8.34186 12.37991,-12.50567 1.43176,-1.44555 2.85952,-2.89494 4.28672,-4.345 4.5115,-4.56112 9.06088,-8.99116 13.94572,-13.15244 2.93408,-2.51922 5.71878,-5.19811 8.53151,-7.85095 4.91691,-4.59631 9.92214,-8.99946 15.17969,-13.20703 2.27652,-1.83009 4.52688,-3.67936 6.76562,-5.55469 27.26526,-22.799 57.53423,-45.45042 90.24219,-59.86328 z"
     fill="#605f5f"
     id="path5" />
  <path
     d="m 174,3.8850708 c 7.92,3.96 7.92,3.96 16,8.0000002 2.16047,1.068633 4.32094,2.137266 6.54687,3.238281 10.99601,5.442388 21.91659,10.961196 32.6084,16.983643 6.20234,3.485221 12.45099,6.581207 18.84473,9.778076 0,26.73 0,53.46 0,80.999999 -5.61,2.97 -11.22,5.94 -17,9 -17.97049,10.16935 -35.29999,21.47676 -51.79932,33.9021 -4.11405,3.0979 -4.11405,3.0979 -5.20068,3.0979 0,-54.45 0,-108.899999 0,-164.9999992 z"
     fill="#fcfcfc"
     id="path6" />
  <path
     d="m 701.67578,139.62335 c 10.07758,5.47069 17.34481,13.45242 21.32422,24.26172 4.63233,17.75109 4.71722,35.7642 -4.29297,52.25 -6.57331,10.58949 -14.9677,15.83689 -26.70703,19.75 -14.82427,0.96508 -22.8188,-0.8641 -35,-10 0,15.51 0,31.02 0,47 -7.59,0 -15.18,0 -23,0 0,-44.55 0,-89.1 0,-135 6.93,0 13.86,0 21,0 1.66343,1.66343 1.36048,3.78257 1.5625,6.0625 0.12568,1.37865 0.12568,1.37865 0.25391,2.78516 0.0606,0.71027 0.12117,1.42054 0.18359,2.15234 0.4125,-0.45891 0.825,-0.91781 1.25,-1.39063 11.11358,-11.80817 28.55527,-14.36128 43.42578,-7.87109 z"
     fill="#777676"
     id="path7" />
  <path
     d="m 177,0.8850708 c 2.71167,1.1396559 5.30342,2.4641923 7.90625,3.8320313 1.13041,0.5819966 1.13041,0.5819966 2.28366,1.1757507 2.44111,1.2599182 4.87568,2.5319018 7.31009,3.804718 1.68157,0.8719422 3.36338,1.7434412 5.04541,2.6145022 11.47892,5.958375 22.87115,12.061491 34.18555,18.326904 4.29663,2.359591 8.63217,4.646901 12.97168,6.926514 4.19273,2.214948 4.19273,2.214948 5.29736,3.31958 0.095,2.494924 0.12558,4.96206 0.11352,7.457275 1.5e-4,0.780432 3e-4,1.560864 4.5e-4,2.364945 -7e-4,2.59184 -0.008,5.183609 -0.0163,7.775436 -0.002,1.79219 -0.003,3.584381 -0.004,5.376572 -0.004,4.72648 -0.0137,9.45293 -0.0247,14.179397 -0.0102,4.81923 -0.0148,9.638465 -0.0198,14.457703 -0.0107,9.462901 -0.0278,18.925781 -0.0488,28.388671 2.97,-0.99 5.94,-1.98 9,-3 0,0.66 0,1.32 0,2 -0.592,0.30067 -1.184,0.60135 -1.79395,0.91113 -14.07593,7.17629 -27.80511,14.71751 -41.20605,23.08887 -0.73412,0.45729 -1.46824,0.91459 -2.22461,1.38574 -17.9058,11.21333 -34.84906,23.72767 -51.00977,37.3291 -1.46179,1.22397 -1.46179,1.22397 -2.95312,2.47266 -0.83918,0.71543 -1.67836,1.43086 -2.54297,2.16797 -2.2148,1.60487 -3.61695,2.18738 -6.26953,2.64453 -2.18399,0.79997 -2.18399,0.79997 -4,2 -0.33,0.99 -0.66,1.98 -1,3 -2.4375,1.75 -2.4375,1.75 -5,3 -0.66,-0.33 -1.32,-0.66 -2,-1 0,-0.66 0,-1.32 0,-2 -0.66,-0.33 -1.32,-0.66 -2,-1 0.99,-0.33 1.98,-0.66 3,-1 -0.33,-32.67 -0.66,-65.34 -1,-98.999999 -15.4544,-8.089263 -15.4544,-8.089263 -31,-16 0,-14.52 0,-29.04 0,-44 13.20507,-7.521874 26.44735,-14.928381 39.86475,-22.064941 1.01787,-0.543179 2.03575,-1.086358 3.08447,-1.645997 0.99564,-0.5294821 1.99128,-1.0589645 3.01709,-1.6044919 4.18957,-2.3264145 8.22839,-4.8876279 12.25561,-7.4838867 3.55243,-1.5353554 5.07966,-1.2929476 8.77808,-0.2006836 z m -3,3 c 0,54.4500002 0,108.8999992 0,164.9999992 4.84928,-2.77102 8.62858,-5.14396 12.875,-8.5625 18.56073,-14.59513 40.02982,-26.88991 61.125,-37.4375 0,-26.729999 0,-53.459999 0,-80.999999 -10.23,-5.28 -20.46,-10.56 -31,-16 -5.51943,-2.897703 -11.03729,-5.797344 -16.54981,-8.708008 C 195.42953,14.529657 190.40322,11.893092 185.375,9.2600708 184.35922,8.7260767 183.34344,8.1920825 182.29687,7.6419067 181.36102,7.1523852 180.42516,6.6628638 179.46094,6.1585083 178.62353,5.7194214 177.78612,5.2803345 176.92334,4.8279419 175.20735,3.8117077 175.20735,3.8117077 174,3.8850708 Z"
     fill="#3b3b3b"
     id="path8" />
  <path
     d="m 517,137.88507 c 0.81855,0.23332 1.63711,0.46664 2.48047,0.70703 8.24815,2.80054 15.75536,8.40367 19.95703,16.16797 3.41798,8.52219 4.99921,16.64427 4.96875,25.80469 0.0108,0.97462 0.0217,1.94924 0.0328,2.9534 0.0339,3.0807 0.0498,6.16104 0.0609,9.24191 -0.14502,17.03168 -0.14502,17.03168 2.86133,33.70361 C 548,228.88507 548,228.88507 548,232.88507 c -7.68931,1.0606 -15.24506,1.09928 -23,1 -2.30096,-4.31203 -3.35179,-7.07496 -3,-12 -0.66,0 -1.32,0 -2,0 -0.25008,0.58652 -0.50016,1.17305 -0.75781,1.77734 -2.78883,4.99007 -7.79589,8.23586 -13.01172,10.33985 -12.49817,3.51354 -25.84866,3.2349 -37.48047,-2.80469 -6.80949,-5.72617 -12.10082,-11.62884 -13.13281,-20.66406 -0.47131,-10.06131 1.47275,-17.7124 7.95312,-25.54688 10.2096,-9.71637 24.21962,-11.44648 37.61719,-11.28906 1.05381,6.5e-4 2.10762,10e-4 3.19336,0.002 4.97434,0.0282 9.73369,0.13078 14.61914,1.1855 -0.95671,-6.42563 -2.18997,-10.51064 -7,-15 -6.61169,-4.31197 -14.36156,-3.70212 -22,-3 -6.81626,1.51386 -12.36424,3.95381 -18,8 -0.99,0 -1.98,0 -3,0 -1.36965,-2.24179 -2.72053,-4.49172 -4.0625,-6.75 -0.38994,-0.63422 -0.77988,-1.26844 -1.18164,-1.92187 -2.80963,-4.77389 -2.80963,-4.77389 -2.55322,-7.41675 1.40493,-3.36781 4.85022,-4.47127 7.98486,-5.97388 1.08269,-0.52497 1.08269,-0.52497 2.18726,-1.06055 14.14941,-6.58992 30.53112,-8.26566 45.62524,-3.87695 z"
     fill="#242424"
     id="path10" />
  <path
     d="m 275,152.88507 c 0.66,0 1.32,0 2,0 0.0931,10.20611 0.16398,20.41211 0.20725,30.61856 0.0208,4.7405 0.0489,9.48071 0.0945,14.22104 0.0438,4.58417 0.0675,9.16807 0.0777,13.75244 0.007,1.73931 0.0216,3.47861 0.0434,5.2178 0.198,16.48629 -2.4641,30.83253 -14.04792,43.37766 -23.76821,22.04523 -66.5036,25.45232 -97.375,24.8125 1.40839,-4.29445 3.45855,-6.87046 6.5625,-10.125 4.22538,-4.52806 8.19673,-9.17215 12.08984,-13.99219 2.57581,-3.16297 5.20467,-6.27602 7.84766,-9.38281 3.35465,-3.94634 6.67222,-7.91643 9.9375,-11.9375 3.40725,-4.19073 6.90332,-8.29186 10.4375,-12.375 4.05736,-4.69033 7.9578,-9.46812 11.75,-14.375 4.11436,-5.32061 8.47509,-10.31124 13.05078,-15.24609 2.86971,-3.16874 5.4991,-6.48862 8.14063,-9.84766 4.08009,-5.08005 8.3788,-9.97644 12.63134,-14.91211 2.53055,-2.94527 5.04306,-5.90568 7.55225,-8.86914 0.44448,-0.52376 0.88897,-1.04752 1.34692,-1.58716 2.00541,-2.37009 3.95851,-4.75122 5.84058,-7.22143 0.59812,-0.70254 1.19625,-1.40508 1.8125,-2.12891 z"
     fill="#595958"
     id="path11" />
  <path
     d="m 771.75,136.51007 c 1.02094,-0.0245 2.04187,-0.049 3.09375,-0.0742 10.5877,-0.0403 20.49218,2.85238 28.15625,10.44922 6.20245,7.72487 10.081,15.99545 10.15772,25.99878 0.0102,0.96838 0.0205,1.93677 0.0311,2.93449 0.007,1.03652 0.0146,2.07303 0.0221,3.14095 0.0281,2.2168 0.0567,4.4336 0.0859,6.65039 0.0412,3.47778 0.0781,6.95542 0.1045,10.43335 0.0278,3.36821 0.0737,6.73579 0.12207,10.10376 0.003,1.02639 0.006,2.05278 0.01,3.11027 0.0988,5.871 0.84035,10.82627 2.82721,16.3649 0.70941,2.51054 0.74725,4.66699 0.63949,7.26311 -4.38523,1.06831 -8.69716,1.21749 -13.1875,1.25 -0.72381,0.0206 -1.44761,0.0412 -2.19336,0.0625 -2.09961,0.0156 -2.09961,0.0156 -5.61914,-0.3125 -2.56616,-3.84925 -2.55098,-6.43493 -3,-11 -0.66,0 -1.32,0 -2,0 -0.24363,0.59684 -0.48726,1.19367 -0.73828,1.80859 -1.4964,2.59901 -2.94031,3.63456 -5.44922,5.25391 -1.10408,0.72897 -1.10408,0.72897 -2.23047,1.47266 -6.3061,3.57756 -11.30946,4.99728 -18.45708,4.90234 -1.19472,-0.0114 -1.19472,-0.0114 -2.41357,-0.023 -6.00839,-0.16864 -10.63122,-1.05591 -15.71143,-4.41455 -0.69223,-0.3893 -1.38445,-0.77859 -2.09766,-1.17969 -6.36643,-4.02216 -9.68029,-9.71623 -11.90234,-16.82031 -1.31789,-9.85377 -0.29465,-17.74861 5.32031,-25.92187 6.92093,-8.84971 16.79383,-12.48723 27.67969,-14.07813 8.38404,-0.66088 16.70583,-0.34235 25,1 -0.26646,-5.99533 -0.81533,-10.37484 -5,-15 -5.00568,-2.59577 -9.20793,-3.52214 -14.875,-3.4375 -0.70109,0.006 -1.40218,0.0122 -2.12451,0.0185 -7.43192,0.2236 -12.38665,2.5318 -18.31299,6.73145 -2.6875,1.6875 -2.6875,1.6875 -4.61719,1.65234 -3.15584,-1.47074 -4.15989,-3.74054 -5.88281,-6.71484 -0.62519,-1.04672 -1.25039,-2.09344 -1.89453,-3.17187 C 736,151.88507 736,151.88507 735.82422,149.25616 c 1.84986,-3.73045 5.17622,-4.90137 8.80078,-6.55859 0.69996,-0.34225 1.39992,-0.68449 2.12109,-1.03711 8.37951,-4.0032 15.7724,-5.13891 25.00391,-5.15039 z"
     fill="#767575"
     id="path12" />
  <path
     d="m 924.75,136.38507 c 1.30771,0.01 1.30771,0.01 2.64185,0.0195 10.77742,0.30261 19.82904,3.48223 27.61206,11.13672 9.96984,11.70628 13.55556,25.59811 13.23437,40.71094 C 968,190.88507 968,190.88507 967,191.88507 c -1.96369,0.094 -3.93079,0.11743 -5.89673,0.11353 -1.26123,-8e-5 -2.52246,-1.6e-4 -3.82191,-2.3e-4 -1.38676,-0.005 -2.77351,-0.0103 -4.16027,-0.0156 -1.41104,-0.002 -2.82209,-0.003 -4.23313,-0.004 -3.72037,-0.004 -7.44069,-0.0137 -11.16103,-0.0247 -3.79374,-0.0102 -7.58748,-0.0148 -11.38123,-0.0198 -7.44858,-0.0107 -14.89714,-0.0278 -22.3457,-0.0488 0.3068,1.44887 0.61773,2.89687 0.93042,4.34448 0.17271,0.80645 0.34542,1.61289 0.52336,2.44377 1.47881,5.98798 5.38002,10.93562 10.54622,14.21175 7.39111,2.96731 17.2756,3.9086 24.99023,1.33643 3.90227,-1.73808 7.44472,-4.00198 11.00977,-6.33643 1.32219,-0.6885 2.65103,-1.36557 4,-2 1.70035,2.26216 3.38516,4.53338 5.0625,6.8125 0.48533,0.6426 0.97066,1.2852 1.4707,1.94727 1.23552,1.69116 2.35956,3.46244 3.4668,5.24023 -1.87925,5.63775 -8.31649,8.56586 -13.38281,11.27344 -13.70569,6.35141 -29.34294,6.71032 -43.61719,1.72656 -12.23908,-5.58854 -20.53846,-15.18989 -25.25,-27.625 -4.86432,-13.59618 -4.31952,-30.10051 1.53906,-43.27344 5.59982,-10.93013 13.18083,-19.42536 24.89063,-23.73828 4.88734,-1.55515 9.46381,-1.90306 14.57031,-1.86328 z"
     fill="#767676"
     id="path13" />
  <path
     d="m 409,86.885071 c -0.58252,3.150247 -1.19459,6.294019 -1.8125,9.4375 -0.16564,0.897832 -0.33129,1.795664 -0.50195,2.720703 -0.1708,0.854004 -0.3416,1.708006 -0.51758,2.587886 -0.15187,0.79076 -0.30374,1.58152 -0.46021,2.39624 -0.23356,0.61303 -0.46712,1.22606 -0.70776,1.85767 -3,1 -3,1 -6,0 -5.87081,-0.47813 -11.19091,-0.81097 -16.625,1.625 -5.8373,5.8373 -5.88467,11.93579 -6.0625,19.75 -0.10312,3.50625 -0.20625,7.0125 -0.3125,10.625 8.25,0 16.5,0 25,0 0,6.93 0,13.86 0,21 -8.25,0 -16.5,0 -25,0 0,24.75 0,49.5 0,75 -8.58,0 -17.16,0 -26,0 0,-24.75 0,-49.5 0,-75 -5.28,0 -10.56,0 -16,0 0,-6.93 0,-13.86 0,-21 5.28,0 10.56,0 16,0 -0.058,-1.80984 -0.11602,-3.61969 -0.17578,-5.48437 -0.0469,-2.42185 -0.0924,-4.84373 -0.13672,-7.26563 -0.0419,-1.18723 -0.0838,-2.37445 -0.12695,-3.59766 -0.15323,-11.21602 2.65996,-20.76152 10.56445,-28.972652 C 372.98223,81.046821 393.79952,78.725535 409,86.885071 Z"
     fill="#252525"
     id="path15" />
  <path
     d="m 568,104.88507 c 8.25,0 16.5,0 25,0 0,10.89 0,21.78 0,33 8.25,0 16.5,0 25,0 0,6.6 0,13.2 0,20 -8.25,0 -16.5,0 -25,0 0.0741,6.4419 0.15697,12.88244 0.26245,19.32373 0.0332,2.19003 0.0613,4.38015 0.084,6.57031 0.0336,3.15288 0.086,6.30498 0.14185,9.45752 0.006,0.97523 0.0128,1.95046 0.0194,2.95523 0.11384,5.29448 0.50515,9.12947 3.49235,13.69321 3.41995,2.93138 6.32746,3.39556 10.80078,3.24219 3.21106,-0.35362 6.29257,-1.08316 9.41406,-1.90235 0.5891,-0.11214 1.17821,-0.22429 1.78516,-0.33984 2.01572,2.01572 2.07029,5.56722 2.625,8.3125 0.14695,0.6774 0.29391,1.3548 0.44531,2.05273 1.38766,6.82487 1.38766,6.82487 -0.0703,9.63477 -1.96094,1.23047 -1.96094,1.23047 -4.375,2.1875 -0.79148,0.32355 -1.58297,0.64711 -2.39844,0.98047 -9.45159,3.53191 -21.57793,3.17633 -30.85937,-0.84375 -8.32738,-4.65839 -12.24879,-10.43529 -15.4043,-19.20728 -1.4938,-5.30804 -1.20948,-10.70503 -1.1582,-16.17553 0.003,-1.14429 0.006,-2.28858 0.009,-3.46755 0.0111,-3.63723 0.0362,-7.27421 0.0617,-10.91136 0.01,-2.4733 0.0192,-4.94661 0.0273,-7.41992 0.022,-6.04762 0.0565,-12.09506 0.0977,-18.14258 -5.28,0 -10.56,0 -16,0 0,-6.6 0,-13.2 0,-20 5.28,0 10.56,0 16,0 0,-10.89 0,-21.78 0,-33 z"
     fill="#252525"
     id="path16" />
  <path
     d="m 85,77.885071 c 0,36.299999 0,72.599999 0,109.999999 -0.33,-0.66 -0.66,-1.32 -1,-2 -2.099815,-0.77839 -2.099815,-0.77839 -4.6875,-1.375 -0.980977,-0.25266 -1.961953,-0.50531 -2.972656,-0.76562 -1.102149,-0.2836 -2.204297,-0.56719 -3.339844,-0.85938 -2.544162,-0.69932 -5.08585,-1.4077 -7.625,-2.125 -1.188516,-0.33258 -2.377031,-0.66516 -3.601562,-1.00781 C 59,178.88507 59,178.88507 58,177.88507 55.485787,177.59283 52.970309,177.43697 50.445313,177.26398 45.594597,176.73051 40.801248,175.75802 36,174.88507 c 0,-24.42 0,-48.84 0,-74 7.59,-3.629999 15.18,-7.259999 23,-10.999999 4.092199,-2.027708 8.178261,-4.058001 12.25,-6.125 1.816777,-0.921111 3.634442,-1.840471 5.453125,-2.757813 0.75958,-0.38559 1.51916,-0.771181 2.301758,-1.168457 4.098051,-1.94873 4.098051,-1.94873 5.995117,-1.94873 z"
     fill="#7f7e7e"
     id="path17" />
  <path
     d="m 419,90.885071 c 8.25,0 16.5,0 25,0 0,46.859999 0,93.719999 0,141.999999 -8.25,0 -16.5,0 -25,0 0,-46.86 0,-93.72 0,-141.999999 z"
     fill="#232323"
     id="path19" />
  <path
     d="m 871.125,136.69757 c 1.21945,0.006 2.43891,0.0129 3.69531,0.0195 3.17969,0.168 3.17969,0.168 6.17969,1.168 0.24091,7.22746 -0.65504,13.90294 -2,21 -0.99,-0.058 -1.98,-0.11602 -3,-0.17578 -9.80546,-0.48272 -9.80546,-0.48272 -18.48438,3.61328 -5.15194,5.31129 -6.61648,11.1227 -6.70507,18.32495 -0.0167,1.15768 -0.0334,2.31535 -0.0507,3.5081 -0.0136,1.2449 -0.0272,2.4898 -0.0411,3.77242 -0.0281,1.95416 -0.0562,3.90832 -0.0847,5.86247 -0.0585,4.12408 -0.1087,8.24828 -0.16012,12.37245 -0.0589,4.69261 -0.12501,9.38509 -0.19269,14.07758 -0.0136,1.25097 -0.0272,2.50194 -0.0411,3.79082 -0.0167,1.14821 -0.0334,2.29643 -0.0507,3.47944 -0.0188,1.52412 -0.0188,1.52412 -0.038,3.07903 C 850,232.88507 850,232.88507 849,233.88507 c -1.54956,0.099 -3.10354,0.1308 -4.65625,0.13281 -1.40959,0.002 -1.40959,0.002 -2.84766,0.004 -1.48306,-0.006 -1.48306,-0.006 -2.99609,-0.0117 -0.98871,0.004 -1.97742,0.008 -2.99609,0.0117 -0.93973,-0.001 -1.87946,-0.003 -2.84766,-0.004 -0.86818,-0.001 -1.73637,-0.002 -2.63086,-0.003 C 828,233.88507 828,233.88507 827,232.88507 c -0.0953,-2.95246 -0.12553,-5.88148 -0.11352,-8.83423 -1.5e-4,-0.92673 -3e-4,-1.85347 -4.5e-4,-2.80829 7e-4,-3.07882 0.009,-6.15758 0.0163,-9.23639 0.002,-2.12849 0.003,-4.25698 0.004,-6.38548 0.004,-5.61423 0.0137,-11.22844 0.0247,-16.84267 0.0102,-5.72407 0.0148,-11.44815 0.0198,-17.17224 0.0107,-11.24024 0.0283,-22.48047 0.0488,-33.7207 6.93,0 13.86,0 21,0 0,4.29 0,8.58 0,13 0.66,0 1.32,0 2,0 0.18563,-0.68062 0.37125,-1.36125 0.5625,-2.0625 2.33846,-4.7786 5.98548,-8.65491 10.72265,-11.13281 3.37496,-1.00035 6.3236,-1.03325 9.83984,-0.99219 z"
     fill="#797979"
     id="path20" />
  <path
     d="m 10,207.88507 c 2.624064,1.24973 4.96325,2.59254 7.292969,4.32813 0.621731,0.46301 1.243462,0.92603 1.884033,1.40307 0.663464,0.50121 1.326929,1.00241 2.010498,1.5188 0.697625,0.52505 1.395249,1.0501 2.114014,1.59107 7.451405,5.65602 14.645876,11.61356 21.828369,17.60473 2.502817,2.08002 5.029879,4.12958 7.557617,6.1792 5.918979,4.83711 11.706476,9.82368 17.496582,14.81348 1.818924,1.56411 3.642719,3.12233 5.468262,4.67871 6.147701,5.24433 12.235316,10.53582 18.214843,15.97265 1.883894,1.68723 3.799039,3.31125 5.757813,4.91016 0.78375,0.66 1.5675,1.32 2.375,2 0,0.33 0,0.66 0,1 -25.244374,0.58884 -60.499664,-3.53315 -80.21875,-20.96094 -7.794928,-8.0567 -11.9602411,-18.41965 -11.8789062,-29.55078 0.00141,-0.72822 0.00283,-1.45645 0.00429,-2.20674 0.00559,-2.32305 0.018143,-4.64601 0.030869,-6.96904 0.00502,-1.57617 0.00958,-3.15234 0.013672,-4.72852 C 9.9621902,215.60769 9.9794493,211.7464 10,207.88507 Z"
     fill="#575757"
     id="path21" />
  <path
     d="m 692,158.88507 c 6.13966,5.24147 9.30978,11.41635 10.29956,19.42334 0.1367,2.49248 0.16853,4.95571 0.13794,7.45166 -0.008,0.87479 -0.0166,1.74958 -0.0252,2.65088 -0.19669,7.54172 -1.02832,14.34475 -5.95532,20.35693 -5.07003,4.80319 -11.01021,7.20572 -17.95703,7.49219 -7.53924,-0.29845 -13.2124,-3.0874 -18.5,-8.375 -3.85706,-6.51241 -3.4797,-12.36834 -3.4375,-19.75 -0.02,-1.22461 -0.04,-2.44922 -0.0606,-3.71094 0.004,-8.17262 0.60877,-16.05488 6.17554,-22.47314 7.65847,-7.33484 20.23104,-8.58376 29.32251,-3.06592 z"
     fill="#fcfcfc"
     id="path24" />
  <path
     d="m 172,3.8850708 c 0.33,0 0.66,0 1,0 0,54.4500002 0,108.8999992 0,164.9999992 7.12195,-4.73393 7.12195,-4.73393 14.00342,-9.72583 14.41361,-10.90529 29.88691,-20.23064 45.62158,-29.08667 1.07298,-0.60497 2.14597,-1.20995 3.25146,-1.83325 1.00241,-0.55647 2.00482,-1.11295 3.0376,-1.68628 0.88639,-0.49218 1.77279,-0.98436 2.68604,-1.49146 C 244,123.88507 244,123.88507 248,122.88507 c 0,-26.729999 0,-53.459999 0,-80.999999 -1.98,-0.66 -3.96,-1.32 -6,-2 -2.0147,-0.970041 -4.01922,-1.962449 -6,-3 0.99,-0.99 0.99,-0.99 2,-2 2.625,0.0625 2.625,0.0625 6,1 0.6772,0.182458 1.3544,0.364915 2.05212,0.552902 2.73848,1.143969 4.10113,2.092182 5.94788,4.447098 1.1832,5.982089 0.92962,11.914747 0.78125,17.988281 -0.0149,1.786448 -0.0263,3.572929 -0.0343,5.359421 -0.0305,4.694453 -0.10904,9.386914 -0.19763,14.080582 -0.082,4.792511 -0.1184,9.585346 -0.15869,14.378357 -0.0857,9.398658 -0.22219,18.795838 -0.39063,28.193358 2.97,-0.99 5.94,-1.98 9,-3 0,0.66 0,1.32 0,2 -0.592,0.30067 -1.184,0.60135 -1.79395,0.91113 -14.07593,7.17629 -27.80511,14.71751 -41.20605,23.08887 -0.73412,0.45729 -1.46824,0.91459 -2.22461,1.38574 -14.46574,9.05903 -28.47075,18.91609 -41.77539,29.61426 -0.66,-0.33 -1.32,-0.66 -2,-1 0,-0.66 0,-1.32 0,-2 -0.33,-0.66 -0.66,-1.32 -1,-2 -0.0947,-2.69124 -0.1273,-5.35599 -0.11523,-8.04736 2e-5,-0.84577 5e-5,-1.69154 7e-5,-2.56294 0.002,-2.86171 0.0114,-5.72333 0.0214,-8.58501 0.004,-2.05144 0.007,-4.10289 0.0109,-6.15433 0.0571,-25.80373 0.29654,-51.606802 0.52827,-77.409439 0.0621,-6.922226 0.12179,-13.844472 0.18138,-20.76672 C 171.74867,32.201182 171.87333,18.043118 172,3.8850708 Z"
     fill="#353535"
     id="path27" />
  <path
     d="m 506.5,190.57257 c 1.0957,0.01 2.19141,0.0193 3.32031,0.0293 8.01078,0.1143 8.01078,0.1143 9.17969,1.2832 0.54931,6.20084 0.73389,11.77255 -3,17 -5.85698,5.99643 -12.37453,8.09866 -20.6875,8.4375 -4.83845,-0.14887 -7.672,-1.07004 -11.3125,-4.4375 -2.37302,-2.92673 -2.95967,-4.68309 -3.4375,-8.4375 0.54169,-4.41091 1.43898,-6.27144 4.4375,-9.5625 6.85696,-4.38755 13.57203,-4.52845 21.5,-4.3125 z"
     fill="#f7f8f8"
     id="path28" />
  <path
     d="m 779.5625,189.76007 c 1.30066,-0.003 2.60133,-0.005 3.94141,-0.008 2.73841,0.10403 4.91242,0.30446 7.49609,1.13281 0.62272,11.65875 0.62272,11.65875 -1.625,16.5 -6.04611,6.36433 -11.00593,9.45111 -19.875,9.8125 -4.53323,-0.12377 -7.56656,-1.03111 -11.5,-3.3125 -3.22832,-3.54074 -3.58757,-7.1493 -3.41016,-11.78516 0.70794,-3.82283 2.56884,-5.67579 5.41016,-8.21484 6.57835,-3.40664 12.22484,-4.13957 19.5625,-4.125 z"
     fill="#f8f8f9"
     id="path29" />
  <path
     d="m 924.75,154.63507 c 1.21172,-0.0258 2.42344,-0.0516 3.67187,-0.0781 5.42412,0.4974 8.55197,2.27864 12.32813,6.14062 3.47178,4.91836 4.25,8.16466 4.25,14.1875 -13.53,0 -27.06,0 -41,0 1.32556,-9.2789 4.77929,-13.54 12,-19 2.91001,-1.455 5.50893,-1.20897 8.75,-1.25 z"
     fill="#fbfafb"
     id="path30" />
  <path
     d="m 85,77.885071 c 0.33,0 0.66,0 1,0 0,36.629999 0,73.259999 0,110.999999 -3.956072,1.31869 -5.503949,0.35494 -9.4375,-1 -9.138883,-3.03459 -18.452322,-5.29787 -27.800537,-7.58789 -1.160237,-0.28424 -2.320474,-0.56848 -3.515869,-0.86133 -1.55183,-0.37645 -1.55183,-0.37645 -3.13501,-0.7605 -3.388719,-0.8608 -6.749267,-1.82976 -10.111084,-2.79028 0,-25.08 0,-50.16 0,-75.999999 8.08,-4.04 8.08,-4.04 13,-5 3.042539,-1.2428 6.024079,-2.60605 9,-4 0.33,0.66 0.66,1.32 1,2 -2.600605,1.340703 -5.205049,2.672734 -7.8125,4 -0.737988,0.381562 -1.475977,0.763125 -2.236328,1.15625 -0.712207,0.360937 -1.424414,0.721875 -2.158203,1.09375 -0.654602,0.335156 -1.309204,0.670313 -1.983643,1.015629 C 39,100.88507 39,100.88507 36,100.88507 c 0,24.42 0,48.84 0,74 7.218873,0.66966 7.218873,0.66966 14.445313,1.24609 0.884296,0.0632 1.768593,0.12633 2.679687,0.19141 0.910078,0.0606 1.820156,0.12117 2.757813,0.18359 0.698671,0.12504 1.397343,0.25008 2.117187,0.37891 0.495,0.99 0.495,0.99 1,2 1.943214,0.58675 1.943214,0.58675 4.3125,0.9375 4.111794,0.75462 8.182547,1.59429 12.25,2.5625 1.011914,0.23719 2.023828,0.47437 3.066406,0.71875 0.782461,0.25781 1.564922,0.51563 2.371094,0.78125 0.33,0.66 0.66,1.32 1,2 0.66,0 1.32,0 2,0 0.33,-35.64 0.66,-71.28 1,-107.999999 z"
     fill="#545455"
     id="path31" />
  <path
     d="m 97.75276,79.135331 c 1.26127,0.636024 1.26127,0.636024 2.54802,1.284897 0.87698,0.438719 1.75396,0.877438 2.65752,1.329452 1.84403,0.923523 3.6871,1.848981 5.52925,2.776261 2.83062,1.424484 5.66443,2.842469 8.49878,4.259521 1.7925,0.89871 3.58483,1.797786 5.37695,2.697266 1.27645,0.63906 1.27645,0.63906 2.57869,1.291031 0.78139,0.393884 1.56278,0.787768 2.36784,1.193588 1.03542,0.520567 1.03542,0.520567 2.09175,1.051651 C 131,95.885072 131,95.885072 132,96.885072 c 0.0953,1.340728 0.12189,2.686425 0.12025,4.030528 0.002,1.30205 0.002,1.30205 0.004,2.63041 -0.005,1.43929 -0.005,1.43929 -0.0109,2.90766 1.5e-4,1.00477 2.9e-4,2.00953 4.4e-4,3.04474 -7e-4,3.33855 -0.008,6.67703 -0.0163,10.01557 -0.002,2.30785 -0.003,4.61571 -0.004,6.92357 -0.004,6.0877 -0.0137,12.17538 -0.0247,18.26307 -0.0102,6.20666 -0.0148,12.41333 -0.0198,18.62 -0.0107,12.18816 -0.0278,24.3763 -0.0488,36.56445 -0.33,0 -0.66,0 -1,0 -0.33,-33.66 -0.66,-67.32 -1,-101.999998 -21.06727,-11.544699 -21.06727,-11.544699 -42.999995,-21.000001 0,37.289999 0,74.579999 0,112.999999 1.65,0.33 3.3,0.66 5,1 0.99,0.99 0.99,0.99 2,2 -3.030635,-0.58929 -6.001782,-1.25045 -9,-2 0.33,-37.29 0.66,-74.58 1,-112.999999 -14.538084,6.922272 -14.538084,6.922272 -29,14.000001 -0.9075,0.12375 -1.815,0.2475 -2.75,0.375 -3.653821,0.702657 -6.297295,2.074061 -9.515625,3.882812 -0.858515,0.367383 -0.858515,0.367383 -1.734375,0.742188 -0.66,-0.33 -1.32,-0.66 -2,-1 10.275707,-5.470094 20.591863,-10.848067 31,-16.062501 1.423367,-0.715067 1.423367,-0.715067 2.875488,-1.44458 0.886714,-0.44239 1.773428,-0.88478 2.687012,-1.340576 0.785039,-0.391955 1.570078,-0.783911 2.378906,-1.187744 6.754877,-3.165159 11.588392,0.1862 17.811329,3.28566 z"
     fill="#151515"
     id="path33" />
  <path
     d="m 172,3.8850708 c 0.33,0 0.66,0 1,0 0,54.4500002 0,108.8999992 0,164.9999992 5.6059,-3.73727 11.06259,-7.47062 16.4375,-11.5 15.88504,-11.71736 15.88504,-11.71736 20.33594,-11.14063 0.73476,0.21141 1.46953,0.42282 2.22656,0.64063 -4.12408,3.39536 -8.43296,6.44997 -12.8125,9.5 -8.53827,5.98119 -16.88469,12.19746 -25.1875,18.5 -0.66,-0.33 -1.32,-0.66 -2,-1 0,-0.66 0,-1.32 0,-2 -0.33,-0.66 -0.66,-1.32 -1,-2 -0.0947,-2.69124 -0.1273,-5.35599 -0.11523,-8.04736 2e-5,-0.84577 5e-5,-1.69154 7e-5,-2.56294 0.002,-2.86171 0.0114,-5.72333 0.0214,-8.58501 0.004,-2.05144 0.007,-4.10289 0.0109,-6.15433 0.0571,-25.80373 0.29654,-51.606802 0.52827,-77.409439 0.0621,-6.922226 0.12179,-13.844472 0.18138,-20.76672 C 171.74867,32.201182 171.87333,18.043118 172,3.8850708 Z"
     fill="#181818"
     id="path34" />
  <path
     d="m 634,137.88507 c 6.93,0 13.86,0 21,0 0,3.96 0,7.92 0,12 -0.33,0 -0.66,0 -1,0 0,-3.63 0,-7.26 0,-11 -5.94,0 -11.88,0 -18,0 0,43.56 0,87.12 0,132 6.27,0 12.54,0 19,0 0,-15.51 0,-31.02 0,-47 0.33,0 0.66,0 1,0 0.33,16.17 0.66,32.34 1,49 -7.59,0 -15.18,0 -23,0 0,-44.55 0,-89.1 0,-135 z"
     fill="#626161"
     id="path35" />
  <path
     d="m 827,137.88507 c 6.6,0 13.2,0 20,0 -0.33,0.66 -0.66,1.32 -1,2 -5.61,-0.33 -11.22,-0.66 -17,-1 0,30.69 0,61.38 0,93 6.27,0 12.54,0 19,0 -0.0105,-1.68593 -0.0209,-3.37186 -0.0317,-5.10889 -0.0322,-5.56397 -0.0552,-11.12793 -0.0719,-16.69197 -0.0104,-3.37421 -0.0246,-6.74832 -0.0473,-10.12248 -0.0242,-3.87714 -0.0356,-7.75414 -0.0444,-11.63135 -0.0103,-1.21461 -0.0207,-2.42922 -0.0313,-3.68063 -1.5e-4,-1.12101 -3e-4,-2.24202 -4.6e-4,-3.397 -0.004,-0.9904 -0.009,-1.98079 -0.0135,-3.00119 C 848,175.88507 848,175.88507 850,173.88507 c 0.0231,7.67537 0.0409,15.35073 0.0518,23.02612 0.005,3.56365 0.0123,7.12728 0.0236,10.69092 0.0129,4.09302 0.0178,8.18602 0.0222,12.27905 0.005,1.2854 0.0103,2.57079 0.0156,3.89513 1.1e-4,1.77172 1.1e-4,1.77172 2.3e-4,3.57924 0.002,1.04591 0.004,2.09182 0.007,3.16942 C 850,232.88507 850,232.88507 849,233.88507 c -1.54956,0.099 -3.10354,0.1308 -4.65625,0.13281 -1.40959,0.002 -1.40959,0.002 -2.84766,0.004 -1.48306,-0.006 -1.48306,-0.006 -2.99609,-0.0117 -0.98871,0.004 -1.97742,0.008 -2.99609,0.0117 -0.93973,-0.001 -1.87946,-0.003 -2.84766,-0.004 -0.86818,-0.001 -1.73637,-0.002 -2.63086,-0.003 C 828,233.88507 828,233.88507 827,232.88507 c -0.0953,-2.95246 -0.12552,-5.88148 -0.11353,-8.83423 -1.4e-4,-0.92673 -2.9e-4,-1.85347 -4.4e-4,-2.80829 7e-4,-3.07882 0.009,-6.15758 0.0163,-9.23639 0.002,-2.12849 0.003,-4.25698 0.004,-6.38548 0.004,-5.61423 0.0137,-11.22844 0.0247,-16.84267 0.0102,-5.72407 0.0148,-11.44815 0.0198,-17.17224 0.0107,-11.24024 0.0283,-22.48047 0.0488,-33.7207 z"
     fill="#6f6f6f"
     id="path37" />
  <path
     d="m 53,90.885071 c 0.66,0.66 1.32,1.32 2,2 -6.27,2.97 -12.54,5.94 -19,8.999999 -0.33,24.09 -0.66,48.18 -1,73 4.62,0.99 9.24,1.98 14,3 0,0.33 0,0.66 0,1 -1.521521,-0.11633 -3.042207,-0.24359 -4.5625,-0.375 -0.846914,-0.0696 -1.693828,-0.13922 -2.566406,-0.21094 C 39,177.88507 39,177.88507 32,175.88507 c 0,-25.08 0,-50.16 0,-75.999999 8,-4 8,-4 13,-5 2.721885,-1.230721 5.364898,-2.594176 8,-4 z"
     fill="#40403f"
     id="path39" />
  <path
     d="m 191,84.885071 c 12.875,2.875 12.875,2.875 14,4 0.0865,1.415701 0.10705,2.835595 0.0977,4.253906 -0.003,0.854004 -0.006,1.708008 -0.01,2.587891 -0.008,0.897832 -0.0168,1.795664 -0.0254,2.720703 -0.004,0.901699 -0.009,1.803399 -0.0137,2.732419 -0.0118,2.23509 -0.0283,4.47005 -0.0488,6.70508 -1.5841,-0.11488 -3.16729,-0.24234 -4.75,-0.375 -0.88172,-0.0696 -1.76344,-0.13922 -2.67188,-0.21094 C 195,106.88507 195,106.88507 191,104.88507 c 0,-6.599999 0,-13.199999 0,-19.999999 z"
     fill="#545454"
     id="path40" />
  <path
     d="m 191,45.885071 c 2.79155,0.679123 5.43829,1.478436 8.125,2.5 0.6832,0.257812 1.36641,0.515625 2.07031,0.78125 C 203,49.885071 203,49.885071 205,50.885071 c 0,5.94 0,11.88 0,18 -3.52521,1.175071 -4.65668,0.727178 -8.125,-0.375 -0.88945,-0.275859 -1.77891,-0.551719 -2.69531,-0.835938 C 192,66.885071 192,66.885071 191,65.885071 c -0.0867,-1.488719 -0.10703,-2.981445 -0.0977,-4.472656 0.003,-0.899121 0.006,-1.798242 0.01,-2.72461 0.008,-0.945527 0.0168,-1.891054 0.0254,-2.865234 0.005,-0.949395 0.009,-1.898789 0.0137,-2.876953 0.0118,-2.353578 0.0283,-4.707032 0.0488,-7.060547 z"
     fill="#565555"
     id="path41" />
  <path
     d="m 12,196.88507 c 5.115796,1.59869 8.848793,4.73837 13,8 0.74967,0.58161 1.499341,1.16322 2.271729,1.76245 1.524562,1.18296 3.047445,2.36809 4.568603,3.55542 2.484592,1.93521 4.984072,3.85019 7.486328,5.76245 8.774931,6.7122 17.365633,13.64049 25.903809,20.65015 1.78967,1.46657 3.583659,2.92789 5.382812,4.38281 10.95995,8.88162 21.571074,18.16039 31.972659,27.6875 2.76362,2.51767 5.57373,4.97657 8.39453,7.42969 2.31574,2.02907 4.60651,4.08425 6.89453,6.14453 0.83531,0.75152 1.67063,1.50305 2.53125,2.27734 1.778,1.60931 3.54848,3.22695 5.3125,4.85157 0.87656,0.80308 1.75312,1.60617 2.65625,2.43359 0.79148,0.7309 1.58297,1.4618 2.39844,2.21484 2.02225,1.67812 3.82969,2.80245 6.22656,3.84766 0.66,-0.66 1.32,-1.32 2,-2 0,-0.99 0,-1.98 0,-3 2.58246,-1.90878 5.12754,-3.56377 8,-5 -1.44425,3.23861 -3.25772,5.61969 -5.625,8.25 -0.63164,0.70641 -1.26328,1.41281 -1.91406,2.14063 -0.48211,0.53109 -0.96422,1.06218 -1.46094,1.60937 -3.85497,-0.52344 -5.85637,-1.352 -8.63672,-4.0625 -0.65484,-0.62777 -1.30969,-1.25555 -1.98437,-1.90234 -1.02287,-1.00741 -1.02287,-1.00741 -2.06641,-2.03516 -1.43031,-1.3757 -2.8613,-2.7507 -4.29297,-4.125 -0.69013,-0.66773 -1.38026,-1.33547 -2.09131,-2.02344 -3.87901,-3.72479 -7.90146,-7.28773 -11.92822,-10.85156 -0.62391,-0.55301 -1.24781,-1.10602 -1.89062,-1.67578 -4.78661,-4.21342 -9.635372,-8.35468 -14.483403,-12.49707 -3.139057,-2.6847 -6.266376,-5.38124 -9.372071,-8.10449 C 74.743383,246.90445 68.172415,241.3429 61.328857,236.0423 57.598967,233.15243 53.930402,230.20064 50.289062,227.20001 42.946417,221.1543 35.427637,215.40948 27.733643,209.81744 16.170307,201.41308 16.170307,201.41308 12,197.88507 c 0,-0.33 0,-0.66 0,-1 z"
     fill="#444444"
     id="path42" />
  <path
     d="m 218,91.885071 c 11.875,2.875 11.875,2.875 13,4 0.0733,2.862676 0.0924,5.700719 0.0625,8.562499 -0.005,0.80631 -0.009,1.61262 -0.0137,2.44336 -0.0118,1.99808 -0.0298,3.99612 -0.0488,5.99414 -5.24461,1.63894 -6.88949,0.52763 -13,-1 0,-6.6 0,-13.199999 0,-19.999999 z"
     fill="#4b4b4a"
     id="path43" />
  <path
     d="m 218,55.885071 c 1.9802,0.474889 3.95914,0.955028 5.9375,1.4375 1.10215,0.266836 2.2043,0.533672 3.33984,0.808594 C 230,58.885071 230,58.885071 231,59.885071 c 0.0733,2.862676 0.0924,5.700719 0.0625,8.5625 -0.005,0.806309 -0.009,1.612617 -0.0137,2.443359 -0.0118,1.998079 -0.0298,3.996119 -0.0488,5.994141 -1.60496,-0.114425 -3.20898,-0.241947 -4.8125,-0.375 -0.89332,-0.06961 -1.78664,-0.139219 -2.70703,-0.210938 C 221,75.885071 221,75.885071 218,73.885071 c -0.34058,-1.879395 -0.34058,-1.879395 -0.29297,-4.132812 0.01,-0.805665 0.0193,-1.611329 0.0293,-2.441407 0.0251,-0.841758 0.0503,-1.683516 0.0762,-2.550781 0.0135,-0.849492 0.0271,-1.698985 0.041,-2.574219 0.0354,-2.10053 0.0892,-4.200734 0.14648,-6.300781 z"
     fill="#545454"
     id="path44" />
  <path
     d="m 69,110.88507 c 0,5.94 0,11.88 0,18 -4,1 -4,1 -12,1 0,-5.28 0,-10.56 0,-16 4.116965,-1.64679 7.577828,-3 12,-3 z"
     fill="#fafafa"
     id="path45" />
  <path
     d="m 64.6875,143.82257 c 1.423125,0.0206 2.84625,0.0412 4.3125,0.0625 0,5.28 0,10.56 0,16 -3.96,0 -7.92,0 -12,0 0,-4.95 0,-9.9 0,-15 2.882113,-0.9607 4.6985,-1.10582 7.6875,-1.0625 z"
     fill="#fbfbfb"
     id="path46" />
  <path
     d="m 179,267.88507 c 0.66,0.33 1.32,0.66 2,1 -1.46819,3.10743 -3.20025,5.90472 -5.125,8.75 -0.80824,1.19883 -0.80824,1.19883 -1.63281,2.42188 -0.40992,0.60328 -0.81985,1.20656 -1.24219,1.82812 4.28691,-0.40684 8.5736,-0.81585 12.86011,-1.22681 1.45567,-0.13925 2.9114,-0.27794 4.36718,-0.41601 2.10278,-0.19955 4.20533,-0.40122 6.30787,-0.60327 1.26207,-0.12045 2.52414,-0.2409 3.82446,-0.36499 3.56207,-0.38055 7.09508,-0.8781 10.64038,-1.38892 2.67939,-0.10752 5.31632,-0.0471 8,0 -2.8727,2.8727 -6.12612,2.91807 -10,3.5 -0.82073,0.12673 -1.64146,0.25346 -2.48706,0.38403 -13.33161,1.93962 -27.03414,3.22154 -40.51294,3.11597 1.48701,-4.82829 4.21283,-7.74878 7.625,-11.3125 0.77344,-0.82468 0.77344,-0.82468 1.5625,-1.66601 1.26451,-1.34647 2.53765,-2.68481 3.8125,-4.02149 z"
     fill="#353535"
     id="path48" />
  <path
     d="m 655,223.88507 c 0.33,0 0.66,0 1,0 0.33,16.17 0.66,32.34 1,49 -7.59,0 -15.18,0 -23,0 0,-14.52 0,-29.04 0,-44 0.33,0 0.66,0 1,0 0.79567,14.02374 1.09556,27.95238 1,42 6.27,0 12.54,0 19,0 0,-15.51 0,-31.02 0,-47 z"
     fill="#5a5a5a"
     id="path49" />
  <path
     d="m 85,77.885071 c 0,22.439999 0,44.879999 0,67.999999 -0.33,0 -0.66,0 -1,0 -0.33,-21.45 -0.66,-42.9 -1,-64.999999 -0.99,0.66 -1.98,1.32 -3,2 -1.32,0 -2.64,0 -4,0 0,0.66 0,1.32 0,2 -0.639375,0.2475 -1.27875,0.495 -1.9375,0.75 -9.092495,3.711222 -17.793762,8.100002 -26.505859,12.623047 -0.945528,0.481465 -1.891055,0.96293 -2.865235,1.458984 -0.853923,0.440618 -1.707846,0.881238 -2.587646,1.335208 -0.694241,0.27481 -1.388482,0.54962 -2.10376,0.83276 -0.66,-0.33 -1.32,-0.66 -2,-1 10.602031,-5.651082 21.257944,-11.181717 32,-16.562499 1.044141,-0.524326 2.088281,-1.048652 3.164062,-1.588867 0.97711,-0.487588 1.954219,-0.975176 2.960938,-1.477539 1.303242,-0.650776 1.303242,-0.650776 2.632812,-1.314698 C 83.122487,77.885071 83.122487,77.885071 85,77.885071 Z"
     fill="#adadad"
     id="path51" />
  <path
     d="m 53,90.885071 c 0.66,0.66 1.32,1.32 2,2 -6.27,2.97 -12.54,5.94 -19,8.999999 -0.33,24.09 -0.66,48.18 -1,73 -0.33,0 -0.66,0 -1,0 -0.33,-25.08 -0.66,-50.16 -1,-75.999999 8,-3 8,-3 11.125,-4 3.115689,-1.083718 5.955546,-2.470762 8.875,-4 z"
     fill="#292829"
     id="path57" />
  <path
     d="m 810,163.88507 c 2.84146,3.19466 3.38373,5.26119 3.43237,9.50293 0.0198,1.10084 0.0396,2.20168 0.06,3.33588 0.006,1.18241 0.0128,2.36482 0.0194,3.58307 0.018,1.21512 0.0359,2.43024 0.0544,3.68219 0.0542,3.88194 0.088,7.76376 0.12139,11.64593 0.0332,2.63153 0.0676,5.26304 0.10351,7.89453 0.085,6.45171 0.15334,12.90344 0.20899,19.35547 -3.31295,-3.31295 -3.12981,-6.78852 -3.20532,-11.31934 -0.0199,-1.06079 -0.0399,-2.12159 -0.0604,-3.21453 -0.0167,-1.13867 -0.0334,-2.27733 -0.0507,-3.4505 -0.0208,-1.17074 -0.0416,-2.34147 -0.063,-3.54767 -0.0654,-3.73926 -0.12432,-7.47859 -0.18312,-11.21796 -0.0432,-2.53516 -0.0868,-5.07032 -0.13086,-7.60547 -0.10707,-6.21477 -0.20885,-12.42961 -0.30664,-18.64453 z"
     fill="#6e6e6e"
     id="path61" />
  <path
     d="m 97,264.88507 c 4.14689,1.66077 7.06719,4.6598 10.25,7.6875 1.16985,1.09713 2.34042,2.19349 3.51172,3.28906 0.56122,0.52626 1.12245,1.05252 1.70068,1.59473 2.42291,2.25132 4.92134,4.40942 7.43213,6.56152 1.74381,1.54646 3.4338,3.12345 5.11719,4.73438 0.53423,0.50587 1.06847,1.01175 1.6189,1.53296 1.0607,1.00697 2.11395,2.02188 3.15869,3.04541 3.06551,2.89518 3.80528,3.55444 8.21069,3.55444 0.0412,-0.5775 0.0825,-1.155 0.125,-1.75 1.51325,-3.89122 5.27258,-5.44879 8.875,-7.25 -1.44425,3.23861 -3.25772,5.61969 -5.625,8.25 -0.63164,0.70641 -1.26328,1.41281 -1.91406,2.14063 -0.48211,0.53109 -0.96422,1.06218 -1.46094,1.60937 -3.85497,-0.52344 -5.85637,-1.352 -8.63672,-4.0625 -0.65484,-0.62777 -1.30969,-1.25555 -1.98437,-1.90234 -0.68192,-0.6716 -1.36383,-1.34321 -2.06641,-2.03516 -1.43031,-1.3757 -2.8613,-2.7507 -4.29297,-4.125 -0.69013,-0.66773 -1.38026,-1.33547 -2.09131,-2.02344 -5.90612,-5.67131 -12.09181,-11.04772 -18.33447,-16.34375 C 99,267.88507 99,267.88507 97,264.88507 Z"
     fill="#323232"
     id="path63" />
  <path
     d="m 133,97.885071 c 0.33,0 0.66,0 1,0 0.008,1.210782 0.0162,2.421569 0.0245,3.669039 0.0774,11.38977 0.16507,22.77941 0.26302,34.16902 0.05,5.85604 0.0964,11.71206 0.13435,17.56819 0.0368,5.64754 0.0831,11.29493 0.13618,16.94234 0.0186,2.15862 0.0337,4.31728 0.0453,6.47595 0.0168,3.01486 0.0458,6.02937 0.0778,9.04411 0.002,0.89983 0.004,1.79967 0.007,2.72676 -0.1601,4.685 -0.1601,4.685 2.3123,8.40459 -1.98,0.99 -1.98,0.99 -4,2 0,-33.33 0,-66.66 0,-100.999999 z"
     fill="#e8e7e8"
     id="path65" />
  <path
     d="m 229,207.88507 c 0,3.67896 -1.24068,4.55388 -3.58594,7.20703 -1.53319,1.94402 -2.59713,3.90424 -3.72656,6.10547 -3.49108,6.51815 -7.98446,12.41076 -14.6875,15.6875 -1.50715,1.47401 -1.50715,1.47401 -2.75,3.125 -0.7425,0.94875 -1.485,1.8975 -2.25,2.875 0,-4.13185 2.20411,-5.92845 4.8125,-8.875 1.00932,-1.16519 2.01842,-2.33056 3.02734,-3.49609 0.52191,-0.59797 1.04382,-1.19593 1.58155,-1.81201 2.51389,-2.89335 4.98245,-5.82457 7.45361,-8.7544 0.87238,-1.02996 1.74477,-2.05991 2.61719,-3.08984 2.51483,-2.98097 5.01414,-5.97399 7.50781,-8.97266 z"
     fill="#434344"
     id="path68" />
  <path
     d="m 154,187.88507 c 0.66,0.33 1.32,0.66 2,1 -6.31151,6.69925 -13.49218,14.23425 -22,18 0.99,-3.465 0.99,-3.465 2,-7 -1.98,0.99 -1.98,0.99 -4,2 1.98,-2.31 3.96,-4.62 6,-7 0.78375,0.165 1.5675,0.33 2.375,0.5 3.27683,0.62416 4.40279,0.57407 7.625,-0.5 0.5907,-1.94603 0.5907,-1.94603 1,-4 0.66,-0.66 1.32,-1.32 2,-2 0.66,0 1.32,0 2,0 0.33,-0.33 0.66,-0.66 1,-1 z"
     fill="#212122"
     id="path69" />
  <path
     d="m 35,173.88507 c 1.145977,0.21656 2.291953,0.43313 3.472656,0.65625 1.529888,0.28158 3.05984,0.56281 4.589844,0.84375 0.752168,0.14309 1.504336,0.28617 2.279297,0.43359 4.635605,0.84284 8.947164,1.21656 13.658203,1.06641 0,0.66 0,1.32 0,2 0.99,0 1.98,0 3,0 0.33,0.66 0.66,1.32 1,2 0.99,0.66 1.98,1.32 3,2 -13.454818,-1.0674 -13.454818,-1.0674 -19,-3 -0.33,-0.66 -0.66,-1.32 -1,-2 -2.809807,-0.69227 -2.809807,-0.69227 -6.0625,-1.125 -1.65709,-0.25137 -1.65709,-0.25137 -3.347656,-0.50781 -0.854649,-0.12117 -1.709297,-0.24235 -2.589844,-0.36719 0.33,-0.66 0.66,-1.32 1,-2 z"
     fill="#3b3c3c"
     id="path74" />
  <path
     d="m 732,203.88507 c 0.33,0 0.66,0 1,0 0.24234,1.08539 0.48469,2.17078 0.73437,3.28906 0.33791,1.44547 0.67648,2.89077 1.01563,4.33594 0.15727,0.71285 0.31453,1.4257 0.47656,2.16016 1.335,5.59672 3.15235,10.28302 7.95703,13.82422 0.74379,0.3764 1.48758,0.75281 2.25391,1.14062 1.17176,0.60135 1.17176,0.60135 2.36719,1.21484 2.36516,1.11525 4.72996,2.16036 7.19531,3.03516 0,0.33 0,0.66 0,1 -6.04009,0.40384 -8.84085,-1.27925 -13.58984,-4.78906 -4.55866,-4.18185 -7.46499,-9.37543 -9.41016,-15.21094 -0.068,-1.72795 -0.085,-3.45835 -0.0625,-5.1875 0.009,-0.90105 0.0181,-1.80211 0.0273,-2.73047 0.0116,-0.68707 0.0232,-1.37414 0.0352,-2.08203 z"
     fill="#606060"
     id="path75" />
  <path
     d="m 69,278.88507 c 3.645993,0.31065 7.291762,0.62387 10.9375,0.9375 1.532373,0.13052 1.532373,0.13052 3.095703,0.26367 2.989738,0.2579 5.978194,0.52815 8.966797,0.79883 0.899927,0.0724 1.799854,0.1447 2.727051,0.21924 2.098606,0.18919 4.188136,0.47499 6.272949,0.78076 0.495,0.99 0.495,0.99 1,2 -6.681724,0.21907 -13.22764,-0.18266 -19.875,-0.8125 -0.832493,-0.0701 -1.664985,-0.14018 -2.522705,-0.2124 -0.794304,-0.0807 -1.588608,-0.16146 -2.406983,-0.24463 -1.067102,-0.10212 -1.067102,-0.10212 -2.155761,-0.2063 -2.524872,-0.6489 -4.057014,-1.865 -6.039551,-3.52417 z"
     fill="#3e3e3e"
     id="path76" />
  <path
     d="m 384.54687,82.787411 c 0.84434,0.0032 1.68867,0.0064 2.55859,0.0098 1.30905,0.01257 1.30905,0.01257 2.64454,0.02539 0.88816,0.0045 1.77632,0.009 2.6914,0.01367 2.18627,0.01175 4.3724,0.02819 6.5586,0.04883 -0.33,0.99 -0.66001,1.98 -1,3 -10.89,0.495 -10.89,0.495 -22,1 0,-0.99 0,-1.98 0,-3 2.92486,-0.841918 5.50741,-1.118193 8.54687,-1.097656 z"
     fill="#363636"
     id="path78" />
  <path
     d="m 220,24.885071 c 4.86872,0.595591 8.59329,2.724774 12.8125,5.0625 0.69287,0.377051 1.38574,0.754101 2.09961,1.142578 1.69918,0.92576 3.39398,1.859545 5.08789,2.794922 -0.66,0.66 -1.32,1.32 -2,2 -4.51349,-0.265499 -9.36546,-2.325045 -13,-5 -0.73438,-2.136719 -0.73438,-2.136719 -1,-4 -1.32,-0.33 -2.64,-0.66 -4,-1 0,-0.33 0,-0.66 0,-1 z"
     fill="#323232"
     id="path79" />
  <path
     d="m 191,84.885071 c 1.98,0.99 1.98,0.99 4,2 -0.66,0 -1.32,0 -2,0 0,5.61 0,11.22 0,16.999999 3.96,0.99 3.96,0.99 8,2 0,0.33 0,0.66 0,1 -1.47968,-0.14049 -2.95875,-0.28755 -4.4375,-0.4375 -0.82371,-0.0812 -1.64742,-0.16242 -2.49609,-0.24609 C 192,105.88507 192,105.88507 191,104.88507 c -0.0867,-1.48872 -0.10703,-2.98144 -0.0977,-4.47266 0.003,-0.899116 0.006,-1.798237 0.01,-2.724605 0.008,-0.945527 0.0168,-1.891054 0.0254,-2.865234 0.005,-0.949395 0.009,-1.898789 0.0137,-2.876953 0.0118,-2.353578 0.0283,-4.707032 0.0488,-7.060547 z"
     fill="#404040"
     id="path80" />
  <path
     d="m 211,145.88507 c 0.33,0.66 0.66,1.32 1,2 -1.79091,1.14702 -3.58275,2.29258 -5.375,3.4375 -1.4966,0.95713 -1.4966,0.95713 -3.02344,1.93359 C 201,154.88507 201,154.88507 199,155.88507 c -0.66,-0.66 -1.32,-1.32 -2,-2 0,-0.66 0,-1.32 0,-2 1.79297,-1.50781 1.79297,-1.50781 4.1875,-3.125 0.7773,-0.53883 1.55461,-1.07766 2.35547,-1.63281 2.72811,-1.37924 4.44318,-1.48844 7.45703,-1.24219 z"
     fill="#292929"
     id="path83" />
  <path
     d="m 53,90.885071 c 0.66,0.66 1.32,1.32 2,2 -3.12202,1.506261 -6.248084,3.003932 -9.375,4.5 -0.889453,0.429258 -1.778906,0.858515 -2.695313,1.300781 -0.850781,0.406055 -1.701562,0.812109 -2.578125,1.230469 -0.785522,0.377049 -1.571044,0.754099 -2.380371,1.142579 C 36,101.88507 36,101.88507 34,101.88507 c -0.33,-0.99 -0.66,-1.979999 -1,-2.999999 7.418605,-2.813954 7.418605,-2.813954 11.125,-4 3.115689,-1.083718 5.955546,-2.470762 8.875,-4 z"
     fill="#323333"
     id="path84" />
  <path
     d="m 179,267.88507 c 0.66,0.33 1.32,0.66 2,1 -1.45176,3.02104 -3.07215,5.86179 -4.875,8.6875 -0.49242,0.78762 -0.98484,1.57523 -1.49219,2.38672 -1.8415,2.17191 -2.85594,2.57116 -5.63281,2.92578 -0.33,-0.99 -0.66,-1.98 -1,-3 3.63,-3.96 7.26,-7.92 11,-12 z"
     fill="#4d4d4d"
     id="path85" />
  <path
     d="m 196,152.88507 c 0.66,0.33 1.32,0.66 2,1 0,3 0,3 -1.32031,4.35156 -3.88163,2.73899 -6.80899,4.29205 -11.67969,4.64844 1.45856,-3.68646 3.30229,-5.16144 6.625,-7.25 0.81727,-0.52078 1.63453,-1.04156 2.47656,-1.57812 0.62649,-0.38672 1.25297,-0.77344 1.89844,-1.17188 z"
     fill="#1e1e1e"
     id="path86" />
  <path
     d="m 168,280.88507 c 0.99,0.33 1.98,0.66 3,1 1.62719,0.0814 3.25752,0.10753 4.88672,0.0977 0.93779,-0.003 1.87558,-0.006 2.8418,-0.01 1.46469,-0.0126 1.46469,-0.0126 2.95898,-0.0254 1.4821,-0.007 1.4821,-0.007 2.99414,-0.0137 2.43951,-0.0118 4.87891,-0.0282 7.31836,-0.0488 0,0.33 0,0.66 0,1 -3.20783,0.33833 -6.41633,0.66976 -9.625,1 -0.90363,0.0954 -1.80727,0.19078 -2.73828,0.28906 -4.56735,0.46674 -9.03789,0.83317 -13.63672,0.71094 0.66,-1.32 1.32,-2.64 2,-4 z"
     fill="#313131"
     id="path87" />
  <path
     d="m 238,130.88507 c -2.51632,2.85985 -5.33886,4.41469 -8.6875,6.1875 -0.99387,0.52981 -1.98773,1.05961 -3.01172,1.60547 -0.75926,0.39832 -1.51851,0.79664 -2.30078,1.20703 -0.66,-0.66 -1.32,-1.32 -2,-2 0.66,0 1.32,0 2,0 0,-0.99 0,-1.98 0,-3 4.97504,-3.24901 7.88225,-4.49941 14,-4 z"
     fill="#262626"
     id="path88" />
  <path
     d="m 200,49.885071 c 2.475,0.495 2.475,0.495 5,1 0,5.94 0,11.88 0,18 -0.99,0.33 -1.98,0.66 -3,1 0.0232,-1.276172 0.0464,-2.552344 0.0703,-3.867188 0.0188,-1.669264 0.037,-3.338536 0.0547,-5.007812 0.0168,-0.841758 0.0335,-1.683516 0.0508,-2.550781 0.006,-0.805664 0.0129,-1.611329 0.0195,-2.441407 0.0105,-0.743628 0.0209,-1.487256 0.0317,-2.253418 -0.0605,-2.124297 -0.0605,-2.124297 -2.22705,-3.879394 z"
     fill="#434343"
     id="path90" />
  <path
     d="m 229,95.885071 c 0.66,0 1.32,0 2,0 0,5.609999 0,11.219999 0,16.999999 -1.65,0.33 -3.3,0.66 -5,1 -0.33,-0.66 -0.66,-1.32 -1,-2 1.32,0 2.64,0 4,0 0,-5.28 0,-10.56 0,-15.999999 z"
     fill="#4b4a4b"
     id="path92" />
  <path
     d="m 190,161.88507 c -3.02273,3.25524 -6.25718,5.61821 -10,8 -0.66,-0.66 -1.32,-1.32 -2,-2 1.15169,-3.45508 1.98847,-4.10704 5,-6 3.05138,-1.10959 3.7978,-1.0674 7,0 z"
     fill="#2a2a2b"
     id="path95" />
  <path
     d="m 245,269.88507 c -3.31088,3.76428 -7.24691,4.80132 -12,6 -3.0625,0.1875 -3.0625,0.1875 -5,0 2.31295,-2.31295 3.47905,-2.49581 6.625,-3.125 0.81727,-0.16758 1.63453,-0.33516 2.47656,-0.50781 0.62649,-0.12117 1.25297,-0.24235 1.89844,-0.36719 0,-0.66 0,-1.32 0,-2 2.49093,-1.24546 3.41081,-0.77676 6,0 z"
     fill="#3b3b3b"
     id="path97" />
  <path
     d="m 226,273.88507 c 3,1 3,1 4,3 -5.16569,1.79218 -8.51054,2.1203 -14,1 0.33,-0.66 0.66,-1.32 1,-2 6.42857,-1.28571 6.42857,-1.28571 9,0 0,-0.66 0,-1.32 0,-2 z"
     fill="#4d4d4d"
     id="path98" />
  <path
     d="m 14,188.88507 c -0.33,0.66 -0.66,1.32 -1,2 1.32,0.66 2.64,1.32 4,2 -3.012644,0.59223 -5.92417,1.05824 -9,1 -2.5625,-1.9375 -2.5625,-1.9375 -4,-4 3.2145127,-1.60726 6.436125,-1.05748 10,-1 z"
     fill="#6f6e6e"
     id="path101" />
  <path
     d="m 169,175.88507 c 0.66,0.33 1.32,0.66 2,1 -3.96,3.3 -7.92,6.6 -12,10 -0.66,-0.33 -1.32,-0.66 -2,-1 4.625,-5.875 4.625,-5.875 8,-7 0.33,-0.66 0.66,-1.32 1,-2 0.99,-0.33 1.98,-0.66 3,-1 z"
     fill="#202021"
     id="path102" />
  <path
     d="m 83,78.885071 c 0,0.66 0,1.32 0,2 -3,2 -3,2 -7,2 0,0.66 0,1.32 0,2 -2.906003,1.25665 -4.796046,2 -8,2 2.382463,-2.681254 4.85455,-4.114235 8.0625,-5.6875 1.316777,-0.655488 1.316777,-0.655488 2.660156,-1.324219 C 81,78.885071 81,78.885071 83,78.885071 Z m -17,9 c 2,1 2,1 2,1 z"
     fill="#9c9c9c"
     id="path103" />
  <path
     d="m 244,35.885071 c 2.375,1.5625 2.375,1.5625 4,3 -0.33,0.33 -0.66,0.66 -1,1 -4.57071,-0.34496 -7.58325,-0.856592 -11,-4 2.94145,-1.470727 4.85305,-0.755269 8,0 z"
     fill="#3e3d3e"
     id="path105" />
  <path
     d="m 308,100.88507 c 0.66,0.33 1.32,0.66 2,1 -2.31,2.31 -4.62,4.62 -7,7 -0.33,-0.66 -0.66,-1.32 -1,-2 -1.32,0.33 -2.64,0.66 -4,1 0,-0.66 0,-1.32 0,-2 1.61992,-0.86376 3.24612,-1.71576 4.875,-2.5625 0.90492,-0.47566 1.80984,-0.95133 2.74219,-1.44141 1.17949,-0.49306 1.17949,-0.49306 2.38281,-0.99609 z"
     fill="#4b4b4b"
     id="path106" />
  <path
     d="m 71,181.88507 c 3.63,0.66 7.26,1.32 11,2 0,0.66 0,1.32 0,2 0.66,0 1.32,0 2,0 0,0.66 0,1.32 0,2 -1.605171,-0.0873 -3.209217,-0.19552 -4.8125,-0.3125 -1.33998,-0.087 -1.33998,-0.087 -2.707031,-0.17578 -2.807188,-0.57912 -3.787448,-1.23373 -5.480469,-3.51172 0,-0.66 0,-1.32 0,-2 z"
     fill="#505050"
     id="path107" />
  <path
     d="m 202,279.88507 c 0.66,0.66 1.32,1.32 2,2 -1.89493,0.19644 -3.79101,0.38177 -5.6875,0.5625 -1.58361,0.15662 -1.58361,0.15662 -3.19922,0.31641 -2.92754,0.11387 -5.28459,-0.17042 -8.11328,-0.87891 0,-0.33 0,-0.66 0,-1 10.61437,-1.3209 10.61437,-1.3209 15,-1 z"
     fill="#3d3d3d"
     id="path109" />
  <path
     d="m 158,273.88507 c 0,4.13781 -1.7151,5.2092 -4.5,8.1875 -0.83531,0.90106 -1.67063,1.80211 -2.53125,2.73047 -0.64969,0.68707 -1.29938,1.37414 -1.96875,2.08203 0,-2.62114 0.31292,-4.50935 1,-7 0.99,0.33 1.98,0.66 3,1 0.26812,-0.59812 0.53625,-1.19625 0.8125,-1.8125 1.17243,-2.15975 2.38119,-3.5454 4.1875,-5.1875 z"
     fill="#303030"
     id="path110" />
  <path
     d="m 56,87.885071 c 0.66,0.33 1.32,0.66 2,1 -2,3 -2,3 -4.125,3.4375 -1.423125,0.278437 -1.423125,0.278437 -2.875,0.5625 -2.118066,1.020412 -4.174503,2.117793 -6.230469,3.257812 -0.583945,0.244922 -1.16789,0.489844 -1.769531,0.742188 -0.66,-0.33 -1.32,-0.66 -2,-1 2.453346,-1.363965 4.911912,-2.716342 7.375,-4.0625 0.698672,-0.389942 1.397344,-0.779883 2.117187,-1.181641 C 52.296102,89.660919 54.145835,88.76632 56,87.885071 Z"
     fill="#171717"
     id="path111" />
  <path
     d="m 87,75.885071 c -2.200885,2.478599 -4.06373,3.612104 -7.1875,4.6875 -1.073144,0.377051 -1.073144,0.377051 -2.167969,0.761719 -0.542695,0.181757 -1.08539,0.363515 -1.644531,0.550781 0,-1.32 0,-2.64 0,-4 3.634232,-2.325909 6.770883,-2.162659 11,-2 z"
     fill="#363736"
     id="path112" />
  <path
     d="m 250,39.885071 c -0.33,5.94 -0.66,11.88 -1,18 -0.33,0 -0.66,0 -1,0 0,-5.28 0,-10.56 0,-16 -1.32,-0.66 -2.64,-1.32 -4,-2 3,-1 3,-1 6,0 z"
     fill="#4c4c4b"
     id="path113" />
  <path
     d="m 189,255.88507 c 0.66,0.33 1.32,0.66 2,1 -2.65337,5.30674 -4.58047,7.29024 -10,10 1.3637,-2.9922 2.94908,-5.29026 5.125,-7.75 0.53883,-0.61359 1.07766,-1.22719 1.63281,-1.85937 0.61489,-0.68836 0.61489,-0.68836 1.24219,-1.39063 z"
     fill="#303031"
     id="path115" />
  <path
     d="m 146,287.88507 c 0,4.38969 -2.12805,5.76906 -5,9 -0.33,-0.66 -0.66,-1.32 -1,-2 -0.66,-0.33 -1.32,-0.66 -2,-1 2.66667,-2 5.33333,-4 8,-6 z"
     fill="#3d3c3d"
     id="path120" />
  <path
     d="m 223,135.88507 c 0.33,1.32 0.66,2.64 1,4 -3.80505,1.79683 -4.70601,2.0735 -9,1 3.96,-2.475 3.96,-2.475 8,-5 z"
     fill="#1b1b1b"
     id="path121" />
  <path
     d="m 179,267.88507 c 0.66,0.33 1.32,0.66 2,1 -3.3,3.63 -6.6,7.26 -10,11 0,-3.9613 1.34877,-4.82914 4,-7.6875 0.7425,-0.80824 1.485,-1.61648 2.25,-2.44922 0.5775,-0.61488 1.155,-1.22976 1.75,-1.86328 z"
     fill="#28282a"
     id="path124" />
  <path
     d="m 185,262.88507 c 0.66,0.33 1.32,0.66 2,1 -2.31,2.64 -4.62,5.28 -7,8 -0.33,-1.32 -0.66,-2.64 -1,-4 1.89353,-1.89353 3.84527,-3.41986 6,-5 z"
     fill="#525252"
     id="path132" />
  <path
     d="m 511,211.88507 c 0.66,0.33 1.32,0.66 2,1 -3.06848,2.9755 -4.46236,3.96475 -8.8125,4.25 -1.05188,-0.0825 -2.10375,-0.165 -3.1875,-0.25 3.23473,-2.15648 6.37151,-3.61458 10,-5 z"
     fill="#383839"
     id="path133" />
  <path
     d="m 101,195.88507 c 2.31,0.33 4.62,0.66 7,1 0,0.66 0,1.32 0,2 2.475,0.99 2.475,0.99 5,2 -3,1 -3,1 -5.26172,0.004 -0.80051,-0.47567 -1.60101,-0.95133 -2.42578,-1.44141 -0.80824,-0.47309 -1.61648,-0.94617 -2.44922,-1.43359 -0.61488,-0.37254 -1.22976,-0.74508 -1.86328,-1.12891 0,-0.33 0,-0.66 0,-1 z"
     fill="#1b1c1b"
     id="path134" />
  <path
     d="m 535,152.88507 c 2.5,0.9375 2.5,0.9375 5,3 0.45788,3.03816 0.28781,5.94926 0,9 -2.00557,-3.00836 -2.92859,-5.57149 -4,-9 -0.33,-0.99 -0.66,-1.98 -1,-3 z"
     fill="#2b2b2b"
     id="path135" />
  <path
     d="m 218,23.885071 c 3.33537,1.111791 4.63707,2.474113 7,5 -0.99,0.495 -0.99,0.495 -2,1 -2.47502,-1.114318 -4.67883,-2.58151 -7,-4 0.66,-0.66 1.32,-1.32 2,-2 z"
     fill="#414141"
     id="path136" />
  <path
     d="m 174,251.88507 c 0.99,0.33 1.98,0.66 3,1 -1.36984,3.16116 -1.98906,3.99271 -5,6 -0.125,-2.375 -0.125,-2.375 0,-5 0.66,-0.66 1.32,-1.32 2,-2 z"
     fill="#434443"
     id="path141" />
  <path
     d="m 216.125,21.822571 c 0.94875,0.350625 1.8975,0.70125 2.875,1.0625 -0.33,0.66 -0.66,1.32 -1,2 -2.9375,-0.375 -2.9375,-0.375 -6,-1 -0.33,-0.66 -0.66,-1.32 -1,-2 2,-1 2,-1 5.125,-0.0625 z"
     fill="#2e2d2e"
     id="path142" />
  <path
     d="m 78,79.885071 c -0.66,0 -1.32,0 -2,0 -0.33,0.99 -0.66,1.98 -1,3 -1.98,0 -3.96,0 -6,0 3.164165,-3.307991 4.49764,-4.350708 9,-3 z"
     fill="#1e1f1f"
     id="path146" />
  <path
     d="m 203.6875,15.260071 c 0.76312,0.20625 1.52625,0.4125 2.3125,0.625 -0.99,1.485 -0.99,1.485 -2,3 -1.98,-0.66 -3.96,-1.32 -6,-2 3,-2 3,-2 5.6875,-1.625 z"
     fill="#444344"
     id="path147" />
  <path
     d="m 157,10.885071 c -2.13465,2.454846 -3.7072,3.681342 -7,4 -0.66,-0.66 -1.32,-1.32 -2,-2 3.4352,-2.290137 4.98533,-2.17843 9,-2 z"
     fill="#464746"
     id="path148" />
  <path
     d="m 188,7.8850708 c 2.625,0.9375 2.625,0.9375 5,2 -0.33,0.6600002 -0.66,1.3200002 -1,2.0000002 -2.4375,-0.375 -2.4375,-0.375 -5,-1 -0.33,-0.66 -0.66,-1.3200002 -1,-2.0000002 0.66,-0.33 1.32,-0.66 2,-1 z"
     fill="#2e2e2e"
     id="path149" />
  <path
     d="m 745,229.88507 c 3.3,0.99 6.6,1.98 10,3 0,0.33 0,0.66 0,1 -2.75,0.25 -2.75,0.25 -6,0 -2.375,-2 -2.375,-2 -4,-4 z"
     fill="#686869"
     id="path151" />
  <path
     d="m 27,222.88507 c 2.31,0.66 4.62,1.32 7,2 0.33,1.32 0.66,2.64 1,4 -3.365919,-1.44254 -5.510471,-3.33265 -8,-6 z"
     fill="#646464"
     id="path152" />
  <path
     d="m 203,172.88507 c 0.99,0.66 1.98,1.32 3,2 -1.98,1.98 -3.96,3.96 -6,6 -0.66,-0.33 -1.32,-0.66 -2,-1 0.63937,-0.78375 1.27875,-1.5675 1.9375,-2.375 2.04392,-2.42039 2.04392,-2.42039 3.0625,-4.625 z"
     fill="#6f6e6e"
     id="path153" />
  <path
     d="m 540,165.88507 c 0.99,0.33 1.98,0.66 3,1 0.1875,2.375 0.1875,2.375 0,5 -0.99,0.66 -1.98,1.32 -3,2 0,-2.64 0,-5.28 0,-8 z"
     fill="#2c2c2c"
     id="path154" />
  <path
     d="m 216.625,140.76007 c 0.78375,0.0412 1.5675,0.0825 2.375,0.125 0.33,0.66 0.66,1.32 1,2 -1.75,1.125 -1.75,1.125 -4,2 -2.25,-0.875 -2.25,-0.875 -4,-2 2,-2 2,-2 4.625,-2.125 z"
     fill="#282828"
     id="path155" />
</svg>
