<?xml version="1.0" encoding="UTF-8" standalone="no"?>
<svg
   version="1.1"
   width="968.25793"
   height="299.88507"
   id="svg155"
   sodipodi:docname="flatpare_logo.svg"
   inkscape:version="1.4.3 (0d15f75, 2025-12-25)"
   xmlns:inkscape="http://www.inkscape.org/namespaces/inkscape"
   xmlns:sodipodi="http://sodipodi.sourceforge.net/DTD/sodipodi-0.dtd"
   xmlns="http://www.w3.org/2000/svg"
   xmlns:svg="http://www.w3.org/2000/svg">
  <defs
     id="defs155" />
  <sodipodi:namedview
     id="namedview155"
     pagecolor="#ffffff"
     bordercolor="#000000"
     borderopacity="0.25"
     inkscape:showpageshadow="2"
     inkscape:pageopacity="0.0"
     inkscape:pagecheckerboard="true"
     inkscape:deskcolor="#d1d1d1"
     showgrid="false"
     inkscape:zoom="1.5397045"
     inkscape:cx="633.56314"
     inkscape:cy="184.77572"
     inkscape:window-width="1920"
     inkscape:window-height="1008"
     inkscape:window-x="0"
     inkscape:window-y="0"
     inkscape:window-maximized="1"
     inkscape:current-layer="svg155"
     inkscape:export-bgcolor="#ffffff00">
    <inkscape:grid
       id="grid155"
       units="px"
       originx="-157"
       originy="-285.11493"
       spacingx="1"
       spacingy="1"
       empcolor="#0099e5"
       empopacity="0.30196078"
       color="#0099e5"
       opacity="0.14901961"
       empspacing="5"
       enabled="true"
       visible="false" />
    <inkscape:page
       x="0"
       y="0"
       width="968.25793"
       height="299.88507"
       id="page2"
       margin="0"
       bleed="0" />
  </sodipodi:namedview>
  <path
     d="m 177,0.8850708 c 2.71167,1.1396559 5.30342,2.4641923 7.90625,3.8320313 0.75361,0.3879977 1.50722,0.7759954 2.28366,1.1757507 2.44111,1.2599182 4.87568,2.5319018 7.31009,3.804718 1.68157,0.8719422 3.36338,1.7434412 5.04541,2.6145022 11.47892,5.958375 22.87115,12.061491 34.18555,18.326904 4.29663,2.359591 8.63217,4.646901 12.97168,6.926514 4.19273,2.214948 4.19273,2.214948 5.29736,3.31958 0.095,2.494924 0.12558,4.96206 0.11352,7.457275 1.5e-4,0.780432 3e-4,1.560864 4.5e-4,2.364945 -7e-4,2.59184 -0.008,5.183609 -0.0163,7.775436 -0.002,1.79219 -0.003,3.584381 -0.004,5.376572 -0.004,4.72648 -0.0137,9.45293 -0.0247,14.179397 -0.0102,4.81923 -0.0148,9.638465 -0.0198,14.457703 -0.0107,9.462901 -0.0278,18.925781 -0.0488,28.388671 2.97,-0.99 5.94,-1.98 9,-3 0,0.66 0,1.32 0,2 -0.592,0.30067 -1.184,0.60135 -1.79395,0.91113 -14.07593,7.17629 -27.80511,14.71751 -41.20605,23.08887 -0.73412,0.45729 -1.46824,0.91459 -2.22461,1.38574 -15.40732,9.64868 -30.08909,20.24604 -44.18945,31.71582 -2.36626,1.92411 -4.75389,3.8132 -7.17188,5.67188 -7.71601,5.93588 -14.91554,12.23169 -21.99804,18.90771 -2.54973,2.37476 -5.18619,4.64784 -7.83008,6.91651 -1.59438,1.40981 -3.09721,2.88203 -4.58594,4.40234 -4.6218,-1.62702 -8.53664,-4.07802 -12.6875,-6.625 -8.04206,-4.83331 -16.31131,-8.79018 -24.96875,-12.38965 -1.680694,-0.70659 -3.351615,-1.43661 -5.015625,-2.18164 -7.39443,-3.24313 -14.887175,-5.49398 -22.708985,-7.43408 -1.98746,-0.49297 -3.97139,-0.99843 -5.95508,-1.50635 -7.64949,-1.94305 -15.31789,-3.68158 -23.05322,-5.2456 C 33,176.88507 33,176.88507 32,175.88507 c -0.095,-2.37301 -0.12559,-4.71679 -0.11353,-7.09009 -1.4e-4,-0.74142 -2.9e-4,-1.48283 -4.4e-4,-2.24672 7e-4,-2.46198 0.008,-4.92388 0.0163,-7.38585 0.002,-1.70251 0.003,-3.40502 0.004,-5.10752 0.004,-4.48975 0.0137,-8.97946 0.0247,-13.4692 0.0102,-4.57793 0.0148,-9.15588 0.0198,-13.73382 0.0107,-8.98895 0.0278,-17.97787 0.0488,-26.966799 1.05263,-0.525701 2.10525,-1.051402 3.18977,-1.593033 9.84941,-4.919648 9.84941,-4.919648 19.67856,-9.879608 2.86097,-1.451341 5.72581,-2.894966 8.59041,-4.339127 1.50658,-0.760961 3.01208,-1.524039 4.5166,-2.289062 2.21766,-1.126989 4.43908,-2.246218 6.66138,-3.364014 1.00156,-0.512395 1.00156,-0.512395 2.02336,-1.035141 8.303354,-4.153173 8.303354,-4.153173 12.68753,-2.747101 0.806082,0.410814 1.612164,0.821627 2.442673,1.244889 0.933322,0.467083 1.866643,0.934167 2.828247,1.415405 1.451465,0.752591 1.451465,0.752591 2.932251,1.520386 0.899242,0.453146 1.798484,0.906291 2.724979,1.373169 3.35334,1.694969 6.69432,3.414322 10.03674,5.130737 7.48687,3.815625 14.97375,7.63125 22.6875,11.5625 0,33.659999 0,67.319999 0,101.999999 2.31,-1.98 4.62,-3.96 7,-6 0.66,0 1.32,0 2,0 -0.33,-32.67 -0.66,-65.34 -1,-98.999999 -15.4544,-8.089263 -15.4544,-8.089263 -31,-16 0,-14.52 0,-29.04 0,-44 13.20507,-7.521874 26.44735,-14.928381 39.86475,-22.064941 1.01787,-0.543179 2.03575,-1.086358 3.08447,-1.645997 1.49346,-0.7942233 1.49346,-0.7942233 3.01709,-1.6044919 4.18957,-2.3264145 8.22839,-4.8876279 12.25561,-7.4838867 3.5528,-1.5353554 5.08003,-1.2929476 8.77845,-0.2006836 z"
     fill="#302f2f"
     id="path3" />
  <path
     d="m 308,100.88507 c 0.66,0.33 1.32,0.66 2,1 -2.51895,2.68927 -5.04051,5.37608 -7.5625,8.0625 -1.05671,1.12825 -1.05671,1.12825 -2.13477,2.2793 -3.85007,4.09846 -7.7386,8.14071 -11.75073,12.08105 -2.2951,2.33229 -4.40995,4.80931 -6.54419,7.28809 -1.95129,2.22462 -3.94934,4.40042 -5.96191,6.56958 -4.78762,5.16191 -9.31784,10.45032 -13.7334,15.93823 -2.51223,3.02146 -5.13671,5.90546 -7.8125,8.78125 -4.23078,4.55241 -8.22276,9.24614 -12.12109,14.08594 -2.73796,3.35388 -5.55108,6.63599 -8.37891,9.91406 -3.55476,4.12448 -7.06793,8.27209 -10.5,12.5 -3.93379,4.84597 -7.98448,9.58099 -12.05859,14.30859 -3.03099,3.52459 -6.01134,7.0819 -8.94141,10.69141 -4.39062,5.40506 -8.91913,10.68324 -13.46094,15.96094 -2.86503,3.33071 -5.70564,6.68144 -8.53906,10.03906 -6.29877,7.45904 -12.65995,14.86416 -19.02051,22.27051 -1.51437,1.76368 -3.02832,3.52771 -4.54199,5.29199 -0.49025,0.5713 -0.98049,1.14259 -1.4856,1.7312 -4.01653,4.68607 -8.00479,9.39572 -11.97558,14.12061 -1.76938,2.09986 -3.53354,4.14291 -5.47632,6.08569 -3.86996,-0.29633 -5.89295,-1.38766 -8.63672,-4.0625 -0.65484,-0.62777 -1.30969,-1.25555 -1.98437,-1.90234 -1.02287,-1.00741 -1.02287,-1.00741 -2.06641,-2.03516 -1.43031,-1.3757 -2.8613,-2.7507 -4.29297,-4.125 -0.69013,-0.66773 -1.38026,-1.33547 -2.09131,-2.02344 -3.87901,-3.72479 -7.90146,-7.28773 -11.92822,-10.85156 -0.62391,-0.55301 -1.24781,-1.10602 -1.89062,-1.67578 -4.78661,-4.21342 -9.63537,-8.35468 -14.4834,-12.49707 -3.13906,-2.6847 -6.26638,-5.38124 -9.37207,-8.10449 -6.51053,-5.70328 -13.08149,-11.26483 -19.92505,-16.56543 -3.7292,-2.88934 -7.39725,-5.84036 -11.0376,-8.84082 C 40.79694,219.3858 30.95802,212.09619 21,204.88507 20.15921,204.2747 19.31842,203.66433 18.45215,203.03546 9.31235,196.33707 9.31235,196.33707 0,189.88507 c 0.495,-0.99 0.495,-0.99 1,-2 45.13513,3.8804 94.24806,19.56621 129.01099,49.74585 1.85986,1.4534 1.85986,1.4534 3.8347,1.09087 2.88503,-1.12053 4.43826,-2.76851 6.61232,-4.97002 0.87481,-0.87827 1.74962,-1.75653 2.65094,-2.66141 0.94813,-0.96679 1.89619,-1.93366 2.84418,-2.9006 0.98329,-0.99144 1.96733,-1.98214 2.95208,-2.97214 2.59432,-2.61144 5.17997,-5.23131 7.76343,-7.85349 4.11799,-4.17711 8.24846,-8.34186 12.37991,-12.50567 1.43176,-1.44555 2.85952,-2.89494 4.28672,-4.345 4.5115,-4.56112 9.06088,-8.99116 13.94572,-13.15244 2.93408,-2.51922 5.71878,-5.19811 8.53151,-7.85095 4.91691,-4.59631 9.92214,-8.99946 15.17969,-13.20703 2.27652,-1.83009 4.52688,-3.67936 6.76562,-5.55469 27.26526,-22.799 57.53423,-45.45042 90.24219,-59.86328 z"
     fill="#605f5f"
     id="path5" />
  <path
     d="m 174,3.8850708 c 7.92,3.96 7.92,3.96 16,8.0000002 2.16047,1.068633 4.32094,2.137266 6.54687,3.238281 10.99601,5.442388 21.91659,10.961196 32.6084,16.983643 6.20234,3.485221 12.45099,6.581207 18.84473,9.778076 0,26.73 0,53.46 0,80.999999 -5.61,2.97 -11.22,5.94 -17,9 -17.97049,10.16935 -35.29999,21.47676 -51.79932,33.9021 -4.11405,3.0979 -4.11405,3.0979 -5.20068,3.0979 0,-54.45 0,-108.899999 0,-164.9999992 z"
     fill="#fcfcfc"
     id="path6" />
  <path
     id="path7"
     d="M 684.33008 136.14844 C 674.61293 136.34973 665.19599 140.11403 658.25 147.49414 C 657.825 147.96696 657.4125 148.42586 657 148.88477 C 656.93758 148.15297 656.87701 147.44269 656.81641 146.73242 C 656.68818 145.32591 656.68818 145.32592 656.5625 143.94727 C 656.36048 141.66734 656.66343 139.5482 655 137.88477 L 634 137.88477 L 634 272.88477 L 657 272.88477 L 657 225.88477 C 669.1812 235.02067 677.17573 236.84985 692 235.88477 C 703.73933 231.97166 712.13372 226.72426 718.70703 216.13477 C 727.71722 199.64897 727.63233 181.63586 723 163.88477 C 719.02059 153.07547 711.75336 145.09374 701.67578 139.62305 C 696.09934 137.18923 690.16037 136.02766 684.33008 136.14844 z M 680.74609 155.49609 C 684.69174 155.69804 688.5907 156.81558 692 158.88477 C 698.13966 164.12624 701.30905 170.3016 702.29883 178.30859 C 702.43553 180.80107 702.46809 183.26382 702.4375 185.75977 C 702.4295 186.63456 702.42071 187.50886 702.41211 188.41016 C 702.21542 195.95188 701.38403 202.7554 696.45703 208.76758 C 691.387 213.57077 685.44682 215.9733 678.5 216.25977 C 670.96076 215.96132 665.2876 213.17237 660 207.88477 C 656.14294 201.37236 656.5203 195.51643 656.5625 188.13477 C 656.5425 186.91016 656.52255 185.68555 656.50195 184.42383 C 656.50595 176.25121 657.11096 168.36943 662.67773 161.95117 C 667.46428 157.3669 674.17002 155.15952 680.74609 155.49609 z "
     style="fill:#767575;fill-opacity:1" />
  <path
     d="m 177,0.8850708 c 2.71167,1.1396559 5.30342,2.4641923 7.90625,3.8320313 1.13041,0.5819966 1.13041,0.5819966 2.28366,1.1757507 2.44111,1.2599182 4.87568,2.5319018 7.31009,3.804718 1.68157,0.8719422 3.36338,1.7434412 5.04541,2.6145022 11.47892,5.958375 22.87115,12.061491 34.18555,18.326904 4.29663,2.359591 8.63217,4.646901 12.97168,6.926514 4.19273,2.214948 4.19273,2.214948 5.29736,3.31958 0.095,2.494924 0.12558,4.96206 0.11352,7.457275 1.5e-4,0.780432 3e-4,1.560864 4.5e-4,2.364945 -7e-4,2.59184 -0.008,5.183609 -0.0163,7.775436 -0.002,1.79219 -0.003,3.584381 -0.004,5.376572 -0.004,4.72648 -0.0137,9.45293 -0.0247,14.179397 -0.0102,4.81923 -0.0148,9.638465 -0.0198,14.457703 -0.0107,9.462901 -0.0278,18.925781 -0.0488,28.388671 2.97,-0.99 5.94,-1.98 9,-3 0,0.66 0,1.32 0,2 -0.592,0.30067 -1.184,0.60135 -1.79395,0.91113 -14.07593,7.17629 -27.80511,14.71751 -41.20605,23.08887 -0.73412,0.45729 -1.46824,0.91459 -2.22461,1.38574 -17.9058,11.21333 -34.84906,23.72767 -51.00977,37.3291 -1.46179,1.22397 -1.46179,1.22397 -2.95312,2.47266 -0.83918,0.71543 -1.67836,1.43086 -2.54297,2.16797 -2.2148,1.60487 -3.61695,2.18738 -6.26953,2.64453 -2.18399,0.79997 -2.18399,0.79997 -4,2 -0.33,0.99 -0.66,1.98 -1,3 -2.4375,1.75 -2.4375,1.75 -5,3 -0.66,-0.33 -1.32,-0.66 -2,-1 0,-0.66 0,-1.32 0,-2 -0.66,-0.33 -1.32,-0.66 -2,-1 0.99,-0.33 1.98,-0.66 3,-1 -0.33,-32.67 -0.66,-65.34 -1,-98.999999 -15.4544,-8.089263 -15.4544,-8.089263 -31,-16 0,-14.52 0,-29.04 0,-44 13.20507,-7.521874 26.44735,-14.928381 39.86475,-22.064941 1.01787,-0.543179 2.03575,-1.086358 3.08447,-1.645997 0.99564,-0.5294821 1.99128,-1.0589645 3.01709,-1.6044919 4.18957,-2.3264145 8.22839,-4.8876279 12.25561,-7.4838867 3.55243,-1.5353554 5.07966,-1.2929476 8.77808,-0.2006836 z m -3,3 c 0,54.4500002 0,108.8999992 0,164.9999992 4.84928,-2.77102 8.62858,-5.14396 12.875,-8.5625 18.56073,-14.59513 40.02982,-26.88991 61.125,-37.4375 0,-26.729999 0,-53.459999 0,-80.999999 -10.23,-5.28 -20.46,-10.56 -31,-16 -5.51943,-2.897703 -11.03729,-5.797344 -16.54981,-8.708008 C 195.42953,14.529657 190.40322,11.893092 185.375,9.2600708 184.35922,8.7260767 183.34344,8.1920825 182.29687,7.6419067 181.36102,7.1523852 180.42516,6.6628638 179.46094,6.1585083 178.62353,5.7194214 177.78612,5.2803345 176.92334,4.8279419 175.20735,3.8117077 175.20735,3.8117077 174,3.8850708 Z"
     fill="#3b3b3b"
     id="path8" />
  <path
     id="path10"
     d="M 499.66211 135.44531 C 489.93409 135.44398 480.21838 137.64302 471.375 141.76172 L 469.1875 142.82227 C 466.05286 144.32488 462.60805 145.42907 461.20312 148.79688 C 460.94672 151.43974 460.94623 151.439 463.75586 156.21289 C 464.15762 156.86632 464.54756 157.50055 464.9375 158.13477 C 466.27947 160.39305 467.63035 162.64298 469 164.88477 L 472 164.88477 C 477.63576 160.83858 483.18374 158.39863 490 156.88477 C 497.63844 156.18265 505.38831 155.5728 512 159.88477 C 516.81003 164.37413 518.04329 168.45914 519 174.88477 C 514.11455 173.83005 509.3552 173.72742 504.38086 173.69922 C 503.29512 173.69822 502.24131 173.69792 501.1875 173.69727 C 487.78993 173.53985 473.77991 175.26996 463.57031 184.98633 C 457.08994 192.82081 455.14588 200.47189 455.61719 210.5332 C 456.64918 219.56842 461.94051 225.4711 468.75 231.19727 C 480.38181 237.23686 493.7323 237.51549 506.23047 234.00195 C 511.4463 231.89796 516.45336 228.65218 519.24219 223.66211 C 519.49984 223.05782 519.74992 222.47129 520 221.88477 L 522 221.88477 C 521.64821 226.80981 522.69904 229.57274 525 233.88477 C 532.75494 233.98405 540.31069 233.94537 548 232.88477 C 548 228.88477 548.00005 228.88428 547.36133 226.46289 C 544.35498 209.79096 544.35498 209.79145 544.5 192.75977 C 544.4889 189.6789 544.47335 186.59828 544.43945 183.51758 C 544.42835 182.51342 544.41705 181.53907 544.40625 180.56445 C 544.43671 171.40403 542.85548 163.28196 539.4375 154.75977 C 535.23583 146.99547 527.72862 141.39234 519.48047 138.5918 L 517 137.88477 C 511.3397 136.239 505.49892 135.44611 499.66211 135.44531 z M 500.75977 190.53906 C 502.61131 190.48767 504.51801 190.51828 506.5 190.57227 C 507.5957 190.58227 508.69141 190.59156 509.82031 190.60156 C 517.83109 190.71586 517.83109 190.71587 519 191.88477 C 519.54931 198.08561 519.73389 203.65732 516 208.88477 C 510.14302 214.8812 503.62547 216.98343 495.3125 217.32227 C 490.47405 217.1734 487.6405 216.25223 484 212.88477 C 481.62698 209.95804 481.04033 208.20168 480.5625 204.44727 C 481.10419 200.03636 482.00148 198.17583 485 194.88477 C 490.14272 191.5941 495.20512 190.69325 500.75977 190.53906 z "
     style="fill:#252525;fill-opacity:1" />
  <path
     d="m 275,152.88507 c 0.66,0 1.32,0 2,0 0.0931,10.20611 0.16398,20.41211 0.20725,30.61856 0.0208,4.7405 0.0489,9.48071 0.0945,14.22104 0.0438,4.58417 0.0675,9.16807 0.0777,13.75244 0.007,1.73931 0.0216,3.47861 0.0434,5.2178 0.198,16.48629 -2.4641,30.83253 -14.04792,43.37766 -23.76821,22.04523 -66.5036,25.45232 -97.375,24.8125 1.40839,-4.29445 3.45855,-6.87046 6.5625,-10.125 4.22538,-4.52806 8.19673,-9.17215 12.08984,-13.99219 2.57581,-3.16297 5.20467,-6.27602 7.84766,-9.38281 3.35465,-3.94634 6.67222,-7.91643 9.9375,-11.9375 3.40725,-4.19073 6.90332,-8.29186 10.4375,-12.375 4.05736,-4.69033 7.9578,-9.46812 11.75,-14.375 4.11436,-5.32061 8.47509,-10.31124 13.05078,-15.24609 2.86971,-3.16874 5.4991,-6.48862 8.14063,-9.84766 4.08009,-5.08005 8.3788,-9.97644 12.63134,-14.91211 2.53055,-2.94527 5.04306,-5.90568 7.55225,-8.86914 0.44448,-0.52376 0.88897,-1.04752 1.34692,-1.58716 2.00541,-2.37009 3.95851,-4.75122 5.84058,-7.22143 0.59812,-0.70254 1.19625,-1.40508 1.8125,-2.12891 z"
     fill="#595958"
     id="path11" />
  <path
     id="path12"
     d="M 774.84375 136.43555 C 773.79187 136.46075 772.77094 136.48527 771.75 136.50977 C 762.51849 136.52125 755.1256 137.65696 746.74609 141.66016 C 746.02492 142.01278 745.32496 142.35502 744.625 142.69727 C 741.00044 144.35449 737.67408 145.52541 735.82422 149.25586 C 736 151.88477 735.99996 151.88484 737.29297 154.96289 C 737.93711 156.04132 738.56231 157.08805 739.1875 158.13477 C 740.91042 161.10907 741.91447 163.37887 745.07031 164.84961 C 747 164.88477 747 164.88477 749.6875 163.19727 C 755.61384 158.99762 760.56808 156.6904 768 156.4668 C 768.72233 156.4605 769.42391 156.45327 770.125 156.44727 C 775.79207 156.36263 779.99432 157.289 785 159.88477 C 789.18467 164.50993 789.73354 168.88944 790 174.88477 C 781.70583 173.54242 773.38404 173.22389 765 173.88477 C 754.11414 175.47567 744.24124 179.11318 737.32031 187.96289 C 731.70535 196.13615 730.68211 204.031 732 213.88477 C 734.22205 220.98885 737.53591 226.68292 743.90234 230.70508 C 744.61555 231.10618 745.30777 231.49547 746 231.88477 C 751.08021 235.24341 755.70255 236.13019 761.71094 236.29883 C 762.92979 236.31043 762.93028 236.31087 764.125 236.32227 C 771.27262 236.41721 776.27593 234.99748 782.58203 231.41992 C 783.70842 230.67623 783.70842 230.67624 784.8125 229.94727 C 787.32141 228.32792 788.76532 227.29237 790.26172 224.69336 C 790.51274 224.07844 790.75637 223.48161 791 222.88477 L 793 222.88477 C 793.44902 227.44984 793.43384 230.03552 796 233.88477 C 799.51953 234.21287 799.51953 234.21287 801.61914 234.19727 C 802.36489 234.17597 803.08869 234.15537 803.8125 234.13477 C 808.30284 234.10226 812.61477 233.95308 817 232.88477 C 817.10776 230.28865 817.07074 228.13163 816.36133 225.62109 C 814.37447 220.08246 813.632 215.12881 813.5332 209.25781 C 813.5292 208.20032 813.52644 207.17287 813.52344 206.14648 C 813.47507 202.77851 813.42819 199.41118 813.40039 196.04297 C 813.37399 192.56504 813.33808 189.08715 813.29688 185.60938 C 813.26768 183.39258 813.23904 181.17578 813.21094 178.95898 C 813.20344 177.89106 813.19645 176.85488 813.18945 175.81836 C 813.17885 174.82064 813.1684 173.85315 813.1582 172.88477 C 813.08148 162.88144 809.20245 154.60964 803 146.88477 C 795.33593 139.28793 785.43145 136.39525 774.84375 136.43555 z M 783.50391 189.75195 C 786.24232 189.85598 788.41633 190.05642 791 190.88477 C 791.62272 202.54352 791.62272 202.54352 789.375 207.38477 C 783.32889 213.7491 778.36907 216.83588 769.5 217.19727 C 764.96677 217.0735 761.93344 216.16616 758 213.88477 C 754.77168 210.34403 754.41243 206.73547 754.58984 202.09961 C 755.29778 198.27678 757.15868 196.42382 760 193.88477 C 766.57835 190.47813 772.22484 189.7452 779.5625 189.75977 C 780.86316 189.75677 782.16383 189.75495 783.50391 189.75195 z "
     style="fill:#767575;fill-opacity:1" />
  <path
     id="path13"
     d="M 924.75 136.38477 C 919.6435 136.34499 915.06703 136.6929 910.17969 138.24805 C 898.46989 142.56097 890.88888 151.0562 885.28906 161.98633 C 879.43048 175.15926 878.88568 191.66359 883.75 205.25977 C 888.46154 217.69488 896.76092 227.29623 909 232.88477 C 923.27425 237.86853 938.9115 237.50961 952.61719 231.1582 C 957.68351 228.45062 964.12075 225.52252 966 219.88477 C 964.89276 218.10698 963.76872 216.33569 962.5332 214.64453 C 962.03316 213.98246 961.54783 213.33987 961.0625 212.69727 C 959.38516 210.41815 957.70035 208.14693 956 205.88477 C 954.65103 206.5192 953.32219 207.19627 952 207.88477 C 948.43495 210.21922 944.8925 212.48458 940.99023 214.22266 C 933.2756 216.79483 923.39111 215.85208 916 212.88477 C 910.8338 209.60864 906.93193 204.66181 905.45312 198.67383 C 905.27519 197.84295 905.1024 197.03692 904.92969 196.23047 C 904.617 194.78286 904.3068 193.33364 904 191.88477 C 911.44856 191.90577 918.89712 191.92289 926.3457 191.93359 C 930.13945 191.93859 933.93282 191.94293 937.72656 191.95312 C 941.4469 191.96412 945.1683 191.97452 948.88867 191.97852 C 950.29971 191.97952 951.71005 191.98042 953.12109 191.98242 C 954.50785 191.98772 955.89449 191.99305 957.28125 191.99805 C 958.5807 191.99812 959.84229 191.99797 961.10352 191.99805 C 963.06946 192.00195 965.03631 191.97877 967 191.88477 C 968 190.88477 968 190.88479 968.23828 188.25195 C 968.55947 173.13912 964.97375 159.2473 955.00391 147.54102 C 947.22089 139.88653 938.17 136.70691 927.39258 136.4043 C 926.05844 136.3948 926.05771 136.39477 924.75 136.38477 z M 928.42188 154.55664 C 933.846 155.05404 936.97384 156.83529 940.75 160.69727 C 944.22178 165.61563 945 168.86193 945 174.88477 L 904 174.88477 C 905.32556 165.60587 908.77929 161.34477 916 155.88477 C 918.91001 154.42977 921.50893 154.6758 924.75 154.63477 C 925.96172 154.60897 927.17344 154.58314 928.42188 154.55664 z "
     style="fill:#797979;fill-opacity:1" />
  <path
     d="m 409,86.885071 c -0.58252,3.150247 -1.19459,6.294019 -1.8125,9.4375 -0.16564,0.897832 -0.33129,1.795664 -0.50195,2.720703 -0.1708,0.854004 -0.3416,1.708006 -0.51758,2.587886 -0.15187,0.79076 -0.30374,1.58152 -0.46021,2.39624 -0.23356,0.61303 -0.46712,1.22606 -0.70776,1.85767 -3,1 -3,1 -6,0 -5.87081,-0.47813 -11.19091,-0.81097 -16.625,1.625 -5.8373,5.8373 -5.88467,11.93579 -6.0625,19.75 -0.10312,3.50625 -0.20625,7.0125 -0.3125,10.625 8.25,0 16.5,0 25,0 0,6.93 0,13.86 0,21 -8.25,0 -16.5,0 -25,0 0,24.75 0,49.5 0,75 -8.58,0 -17.16,0 -26,0 0,-24.75 0,-49.5 0,-75 -5.28,0 -10.56,0 -16,0 0,-6.93 0,-13.86 0,-21 5.28,0 10.56,0 16,0 -0.058,-1.80984 -0.11602,-3.61969 -0.17578,-5.48437 -0.0469,-2.42185 -0.0924,-4.84373 -0.13672,-7.26563 -0.0419,-1.18723 -0.0838,-2.37445 -0.12695,-3.59766 -0.15323,-11.21602 2.65996,-20.76152 10.56445,-28.972652 C 372.98223,81.046821 393.79952,78.725535 409,86.885071 Z"
     fill="#252525"
     id="path15" />
  <path
     d="m 568,104.88507 c 8.25,0 16.5,0 25,0 0,10.89 0,21.78 0,33 8.25,0 16.5,0 25,0 0,6.6 0,13.2 0,20 -8.25,0 -16.5,0 -25,0 0.0741,6.4419 0.15697,12.88244 0.26245,19.32373 0.0332,2.19003 0.0613,4.38015 0.084,6.57031 0.0336,3.15288 0.086,6.30498 0.14185,9.45752 0.006,0.97523 0.0128,1.95046 0.0194,2.95523 0.11384,5.29448 0.50515,9.12947 3.49235,13.69321 3.41995,2.93138 6.32746,3.39556 10.80078,3.24219 3.21106,-0.35362 6.29257,-1.08316 9.41406,-1.90235 0.5891,-0.11214 1.17821,-0.22429 1.78516,-0.33984 2.01572,2.01572 2.07029,5.56722 2.625,8.3125 0.14695,0.6774 0.29391,1.3548 0.44531,2.05273 1.38766,6.82487 1.38766,6.82487 -0.0703,9.63477 -1.96094,1.23047 -1.96094,1.23047 -4.375,2.1875 -0.79148,0.32355 -1.58297,0.64711 -2.39844,0.98047 -9.45159,3.53191 -21.57793,3.17633 -30.85937,-0.84375 -8.32738,-4.65839 -12.24879,-10.43529 -15.4043,-19.20728 -1.4938,-5.30804 -1.20948,-10.70503 -1.1582,-16.17553 0.003,-1.14429 0.006,-2.28858 0.009,-3.46755 0.0111,-3.63723 0.0362,-7.27421 0.0617,-10.91136 0.01,-2.4733 0.0192,-4.94661 0.0273,-7.41992 0.022,-6.04762 0.0565,-12.09506 0.0977,-18.14258 -5.28,0 -10.56,0 -16,0 0,-6.6 0,-13.2 0,-20 5.28,0 10.56,0 16,0 0,-10.89 0,-21.78 0,-33 z"
     fill="#252525"
     id="path16"
     style="fill:#252525;fill-opacity:1" />
  <path
     d="m 85,77.885071 c 0,36.299999 0,72.599999 0,109.999999 -0.33,-0.66 -0.66,-1.32 -1,-2 -2.099815,-0.77839 -2.099815,-0.77839 -4.6875,-1.375 -0.980977,-0.25266 -1.961953,-0.50531 -2.972656,-0.76562 -1.102149,-0.2836 -2.204297,-0.56719 -3.339844,-0.85938 -2.544162,-0.69932 -5.08585,-1.4077 -7.625,-2.125 -1.188516,-0.33258 -2.377031,-0.66516 -3.601562,-1.00781 C 59,178.88507 59,178.88507 58,177.88507 55.485787,177.59283 52.970309,177.43697 50.445313,177.26398 45.594597,176.73051 40.801248,175.75802 36,174.88507 c 0,-24.42 0,-48.84 0,-74 7.59,-3.629999 15.18,-7.259999 23,-10.999999 4.092199,-2.027708 8.178261,-4.058001 12.25,-6.125 1.816777,-0.921111 3.634442,-1.840471 5.453125,-2.757813 0.75958,-0.38559 1.51916,-0.771181 2.301758,-1.168457 4.098051,-1.94873 4.098051,-1.94873 5.995117,-1.94873 z"
     fill="#7f7e7e"
     id="path17" />
  <path
     d="m 419,90.885071 c 8.25,0 16.5,0 25,0 0,46.859999 0,93.719999 0,141.999999 -8.25,0 -16.5,0 -25,0 0,-46.86 0,-93.72 0,-141.999999 z"
     fill="#232323"
     id="path19"
     style="fill:#252525;fill-opacity:1" />
  <path
     d="m 871.125,136.69757 c 1.21945,0.006 2.43891,0.0129 3.69531,0.0195 3.17969,0.168 3.17969,0.168 6.17969,1.168 0.24091,7.22746 -0.65504,13.90294 -2,21 -0.99,-0.058 -1.98,-0.11602 -3,-0.17578 -9.80546,-0.48272 -9.80546,-0.48272 -18.48438,3.61328 -5.15194,5.31129 -6.61648,11.1227 -6.70507,18.32495 -0.0167,1.15768 -0.0334,2.31535 -0.0507,3.5081 -0.0136,1.2449 -0.0272,2.4898 -0.0411,3.77242 -0.0281,1.95416 -0.0562,3.90832 -0.0847,5.86247 -0.0585,4.12408 -0.1087,8.24828 -0.16012,12.37245 -0.0589,4.69261 -0.12501,9.38509 -0.19269,14.07758 -0.0136,1.25097 -0.0272,2.50194 -0.0411,3.79082 -0.0167,1.14821 -0.0334,2.29643 -0.0507,3.47944 -0.0188,1.52412 -0.0188,1.52412 -0.038,3.07903 C 850,232.88507 850,232.88507 849,233.88507 c -1.54956,0.099 -3.10354,0.1308 -4.65625,0.13281 -1.40959,0.002 -1.40959,0.002 -2.84766,0.004 -1.48306,-0.006 -1.48306,-0.006 -2.99609,-0.0117 -0.98871,0.004 -1.97742,0.008 -2.99609,0.0117 -0.93973,-0.001 -1.87946,-0.003 -2.84766,-0.004 -0.86818,-0.001 -1.73637,-0.002 -2.63086,-0.003 C 828,233.88507 828,233.88507 827,232.88507 c -0.0953,-2.95246 -0.12553,-5.88148 -0.11352,-8.83423 -1.5e-4,-0.92673 -3e-4,-1.85347 -4.5e-4,-2.80829 7e-4,-3.07882 0.009,-6.15758 0.0163,-9.23639 0.002,-2.12849 0.003,-4.25698 0.004,-6.38548 0.004,-5.61423 0.0137,-11.22844 0.0247,-16.84267 0.0102,-5.72407 0.0148,-11.44815 0.0198,-17.17224 0.0107,-11.24024 0.0283,-22.48047 0.0488,-33.7207 6.93,0 13.86,0 21,0 0,4.29 0,8.58 0,13 0.66,0 1.32,0 2,0 0.18563,-0.68062 0.37125,-1.36125 0.5625,-2.0625 2.33846,-4.7786 5.98548,-8.65491 10.72265,-11.13281 3.37496,-1.00035 6.3236,-1.03325 9.83984,-0.99219 z"
     fill="#797979"
     id="path20" />
  <path
     d="m 10,207.88507 c 2.624064,1.24973 4.96325,2.59254 7.292969,4.32813 0.621731,0.46301 1.243462,0.92603 1.884033,1.40307 0.663464,0.50121 1.326929,1.00241 2.010498,1.5188 0.697625,0.52505 1.395249,1.0501 2.114014,1.59107 7.451405,5.65602 14.645876,11.61356 21.828369,17.60473 2.502817,2.08002 5.029879,4.12958 7.557617,6.1792 5.918979,4.83711 11.706476,9.82368 17.496582,14.81348 1.818924,1.56411 3.642719,3.12233 5.468262,4.67871 6.147701,5.24433 12.235316,10.53582 18.214843,15.97265 1.883894,1.68723 3.799039,3.31125 5.757813,4.91016 0.78375,0.66 1.5675,1.32 2.375,2 0,0.33 0,0.66 0,1 -25.244374,0.58884 -60.499664,-3.53315 -80.21875,-20.96094 -7.794928,-8.0567 -11.9602411,-18.41965 -11.8789062,-29.55078 0.00141,-0.72822 0.00283,-1.45645 0.00429,-2.20674 0.00559,-2.32305 0.018143,-4.64601 0.030869,-6.96904 0.00502,-1.57617 0.00958,-3.15234 0.013672,-4.72852 C 9.9621902,215.60769 9.9794493,211.7464 10,207.88507 Z"
     fill="#575757"
     id="path21" />
  <path
     d="m 191,84.885071 c 12.875,2.875 12.875,2.875 14,4 0.0865,1.415701 0.10705,2.835595 0.0977,4.253906 -0.003,0.854004 -0.006,1.708008 -0.01,2.587891 -0.008,0.897832 -0.0168,1.795664 -0.0254,2.720703 -0.004,0.901699 -0.009,1.803399 -0.0137,2.732419 -0.0118,2.23509 -0.0283,4.47005 -0.0488,6.70508 -1.5841,-0.11488 -3.16729,-0.24234 -4.75,-0.375 -0.88172,-0.0696 -1.76344,-0.13922 -2.67188,-0.21094 C 195,106.88507 195,106.88507 191,104.88507 c 0,-6.599999 0,-13.199999 0,-19.999999 z"
     fill="#545454"
     id="path40" />
  <path
     d="m 191,45.885071 c 2.79155,0.679123 5.43829,1.478436 8.125,2.5 0.6832,0.257812 1.36641,0.515625 2.07031,0.78125 C 203,49.885071 203,49.885071 205,50.885071 c 0,5.94 0,11.88 0,18 -3.52521,1.175071 -4.65668,0.727178 -8.125,-0.375 -0.88945,-0.275859 -1.77891,-0.551719 -2.69531,-0.835938 C 192,66.885071 192,66.885071 191,65.885071 c -0.0867,-1.488719 -0.10703,-2.981445 -0.0977,-4.472656 0.003,-0.899121 0.006,-1.798242 0.01,-2.72461 0.008,-0.945527 0.0168,-1.891054 0.0254,-2.865234 0.005,-0.949395 0.009,-1.898789 0.0137,-2.876953 0.0118,-2.353578 0.0283,-4.707032 0.0488,-7.060547 z"
     fill="#565555"
     id="path41" />
  <path
     d="m 218,91.885071 c 11.875,2.875 11.875,2.875 13,4 0.0733,2.862676 0.0924,5.700719 0.0625,8.562499 -0.005,0.80631 -0.009,1.61262 -0.0137,2.44336 -0.0118,1.99808 -0.0298,3.99612 -0.0488,5.99414 -5.24461,1.63894 -6.88949,0.52763 -13,-1 0,-6.6 0,-13.199999 0,-19.999999 z"
     fill="#4b4b4a"
     id="path43" />
  <path
     d="m 218,55.885071 c 1.9802,0.474889 3.95914,0.955028 5.9375,1.4375 1.10215,0.266836 2.2043,0.533672 3.33984,0.808594 C 230,58.885071 230,58.885071 231,59.885071 c 0.0733,2.862676 0.0924,5.700719 0.0625,8.5625 -0.005,0.806309 -0.009,1.612617 -0.0137,2.443359 -0.0118,1.998079 -0.0298,3.996119 -0.0488,5.994141 -1.60496,-0.114425 -3.20898,-0.241947 -4.8125,-0.375 -0.89332,-0.06961 -1.78664,-0.139219 -2.70703,-0.210938 C 221,75.885071 221,75.885071 218,73.885071 c -0.34058,-1.879395 -0.34058,-1.879395 -0.29297,-4.132812 0.01,-0.805665 0.0193,-1.611329 0.0293,-2.441407 0.0251,-0.841758 0.0503,-1.683516 0.0762,-2.550781 0.0135,-0.849492 0.0271,-1.698985 0.041,-2.574219 0.0354,-2.10053 0.0892,-4.200734 0.14648,-6.300781 z"
     fill="#545454"
     id="path44" />
  <path
     d="m 69,110.88507 c 0,5.94 0,11.88 0,18 -4,1 -4,1 -12,1 0,-5.28 0,-10.56 0,-16 4.116965,-1.64679 7.577828,-3 12,-3 z"
     fill="#fafafa"
     id="path45" />
  <path
     d="m 64.6875,143.82257 c 1.423125,0.0206 2.84625,0.0412 4.3125,0.0625 0,5.28 0,10.56 0,16 -3.96,0 -7.92,0 -12,0 0,-4.95 0,-9.9 0,-15 2.882113,-0.9607 4.6985,-1.10582 7.6875,-1.0625 z"
     fill="#fbfbfb"
     id="path46" />
  <path
     d="m 229,95.885071 c 0.66,0 1.32,0 2,0 0,5.609999 0,11.219999 0,16.999999 -1.65,0.33 -3.3,0.66 -5,1 -0.33,-0.66 -0.66,-1.32 -1,-2 1.32,0 2.64,0 4,0 0,-5.28 0,-10.56 0,-15.999999 z"
     fill="#4b4a4b"
     id="path92" />
</svg>
